<svg width="75" height="75" viewBox="0 0 75 75" fill="none" xmlns="http://www.w3.org/2000/svg">
<g filter="url(#filter0_di_66_177)">
<circle cx="37.5" cy="33.5" r="32.5" fill="#42FF00"/>
<circle cx="37.5" cy="33.5" r="32.5" stroke="#919191" stroke-width="2"/>
</g>
<path d="M32.3612 42.1C32.3612 41.8833 32.3196 41.775 32.2362 41.775L31.6612 42.05C31.6612 41.9333 31.5946 41.85 31.4612 41.8L31.2612 41.775C31.1279 41.775 30.9612 41.8333 30.7612 41.95C30.7279 41.8667 30.6862 41.7833 30.6362 41.7C30.5862 41.6167 30.5446 41.5417 30.5112 41.475C30.2946 41.0583 30.0779 40.6 29.8612 40.1C29.6612 39.5833 29.4696 39.0917 29.2862 38.625C29.1196 38.1583 28.9862 37.7917 28.8862 37.525C28.8196 37.3083 28.7446 36.9833 28.6612 36.55C28.5779 36.1167 28.4946 35.5667 28.4112 34.9C28.5946 35.0167 28.7362 35.075 28.8362 35.075C28.9529 35.075 29.0612 34.9 29.1612 34.55C29.2112 34.6167 29.3029 34.65 29.4362 34.65C29.5362 34.65 29.6112 34.6167 29.6612 34.55L30.0612 33.95L30.5112 34.1H30.5362C30.5696 34.1 30.6029 34.0833 30.6362 34.05C30.6696 34.0167 30.7196 33.9833 30.7862 33.95C30.9196 33.8667 31.0196 33.825 31.0862 33.825L31.1612 33.85C31.5779 34.05 31.8446 34.4167 31.9612 34.95C32.2612 36.2167 32.5612 36.85 32.8612 36.85C33.1612 36.85 33.5112 36.5333 33.9112 35.9C34.1112 35.5833 34.3112 35.2167 34.5112 34.8C34.7279 34.3833 34.9446 33.9167 35.1612 33.4C35.1946 33.6 35.2279 33.7 35.2612 33.7C35.3446 33.7 35.4862 33.4917 35.6862 33.075C35.9029 32.6583 36.2446 32.0833 36.7112 31.35C36.9779 30.9 37.3112 30.3917 37.7112 29.825C38.1279 29.2583 38.5696 28.675 39.0362 28.075C39.5029 27.475 39.9529 26.9083 40.3862 26.375C40.8362 25.8417 41.2362 25.3833 41.5862 25C41.9362 24.6167 42.1946 24.3667 42.3612 24.25C42.9946 23.8167 43.4946 23.4 43.8612 23C43.8446 23.1167 43.8196 23.225 43.7862 23.325C43.7696 23.4083 43.7612 23.4667 43.7612 23.5C43.7612 23.5667 43.7946 23.6 43.8612 23.6L44.5612 23.25V23.35C44.5612 23.4833 44.5946 23.55 44.6612 23.55C44.7112 23.55 44.8112 23.475 44.9612 23.325C45.1112 23.175 45.1946 23.0667 45.2112 23L45.1612 23.35L46.0112 22.85L45.8112 23.3C46.0779 23.1167 46.2696 23.025 46.3862 23.025C46.4529 23.025 46.5029 23.0667 46.5362 23.15C46.5696 23.2167 46.5862 23.2833 46.5862 23.35C46.5862 23.45 46.5446 23.5667 46.4612 23.7C46.3779 23.8333 46.2696 23.9917 46.1362 24.175C46.0362 24.3083 45.8696 24.5083 45.6362 24.775C45.4196 25.025 45.0862 25.4 44.6362 25.9C44.1862 26.3833 43.5862 27.0583 42.8362 27.925C42.6362 28.1417 42.3279 28.525 41.9112 29.075C41.4946 29.6083 41.0196 30.2333 40.4862 30.95C39.9696 31.65 39.4529 32.3583 38.9362 33.075C38.4196 33.7917 37.9612 34.4417 37.5612 35.025C37.1612 35.5917 36.8779 36.0167 36.7112 36.3L35.1612 38.925C34.8279 39.4917 34.5529 39.9583 34.3362 40.325C34.1196 40.675 33.9529 40.9167 33.8362 41.05C33.5862 41.35 33.3112 41.6167 33.0112 41.85L32.7862 41.725L32.5862 41.85L32.3612 42.1Z" fill="#919191"/>
<defs>
<filter id="filter0_di_66_177" x="0" y="0" width="75" height="75" filterUnits="userSpaceOnUse" color-interpolation-filters="sRGB">
<feFlood flood-opacity="0" result="BackgroundImageFix"/>
<feColorMatrix in="SourceAlpha" type="matrix" values="0 0 0 0 0 0 0 0 0 0 0 0 0 0 0 0 0 0 127 0" result="hardAlpha"/>
<feOffset dy="4"/>
<feGaussianBlur stdDeviation="2"/>
<feComposite in2="hardAlpha" operator="out"/>
<feColorMatrix type="matrix" values="0 0 0 0 0 0 0 0 0 0 0 0 0 0 0 0 0 0 0.25 0"/>
<feBlend mode="normal" in2="BackgroundImageFix" result="effect1_dropShadow_66_177"/>
<feBlend mode="normal" in="SourceGraphic" in2="effect1_dropShadow_66_177" result="shape"/>
<feColorMatrix in="SourceAlpha" type="matrix" values="0 0 0 0 0 0 0 0 0 0 0 0 0 0 0 0 0 0 127 0" result="hardAlpha"/>
<feOffset dy="4"/>
<feGaussianBlur stdDeviation="2"/>
<feComposite in2="hardAlpha" operator="arithmetic" k2="-1" k3="1"/>
<feColorMatrix type="matrix" values="0 0 0 0 0 0 0 0 0 0 0 0 0 0 0 0 0 0 0.25 0"/>
<feBlend mode="normal" in2="shape" result="effect2_innerShadow_66_177"/>
</filter>
</defs>
</svg>
