<svg width="355" height="71" viewBox="0 0 355 71" fill="none" xmlns="http://www.w3.org/2000/svg">
<g filter="url(#filter0_d_21_4)">
<path d="M19.1695 61.144V60.824C19.6388 60.44 20.1082 60.056 20.5775 59.672C21.0895 59.3307 21.5802 58.9893 22.0495 58.648C23.0735 57.88 23.9695 57.0907 24.7375 56.28C25.2495 55.6827 25.7402 55.0853 26.2095 54.488C26.6788 53.848 27.1268 53.1867 27.5535 52.504C27.9802 51.8213 28.4282 51.2027 28.8975 50.648C29.4095 50.0507 29.9428 49.4747 30.4975 48.92C30.5402 48.3653 30.7962 47.704 31.2655 46.936C31.7348 46.1253 32.2682 45.2933 32.8655 44.44C33.4628 43.5867 33.9748 42.776 34.4015 42.008C34.8708 41.24 35.1055 40.6 35.1055 40.088C35.1908 40.0027 35.2548 39.896 35.2975 39.768C35.3828 39.5973 35.4468 39.4267 35.4895 39.256C35.5748 39 35.7455 38.8293 36.0015 38.744C36.0015 38.3173 36.0868 37.9333 36.2575 37.592C36.3428 37.3787 36.3855 37.1867 36.3855 37.016C36.4282 36.8027 36.4495 36.6107 36.4495 36.44V36.376C35.9375 36.1627 35.4255 36.056 34.9135 36.056C33.8468 36.056 32.5882 36.248 31.1375 36.632C29.6868 37.016 28.1935 37.464 26.6575 37.976C25.1215 38.488 23.6922 38.9573 22.3695 39.384C22.1562 39.2987 22.0282 39.1067 21.9855 38.808C21.9428 38.5093 21.9215 38.2533 21.9215 38.04C21.9215 37.1867 22.1988 36.4187 22.7535 35.736C22.9242 35.6933 23.0095 35.6293 23.0095 35.544C24.5028 35.2027 25.9962 34.9253 27.4895 34.712C28.9828 34.4987 30.4762 34.392 31.9695 34.392C32.9082 34.392 33.8468 34.2213 34.7855 33.88C35.6388 33.5813 36.5775 33.432 37.6015 33.432C37.9428 33.2187 38.3482 32.6 38.8175 31.576C39.2868 30.552 39.7562 29.4427 40.2255 28.248C40.6948 27.0533 41.0788 26.072 41.3775 25.304C41.7188 24.4933 42.1028 23.448 42.5295 22.168C42.9988 20.888 43.4468 19.672 43.8735 18.52C44.3002 17.3253 44.5988 16.5147 44.7695 16.088C44.0015 15.7467 43.6175 15.192 43.6175 14.424C43.6175 14.0827 43.7882 13.592 44.1295 12.952C44.5135 12.2693 44.9188 11.5867 45.3455 10.904C45.8148 10.2213 46.1562 9.688 46.3695 9.304C45.9855 9.048 45.7722 8.83466 45.7295 8.664C45.6868 8.49333 45.6442 8.36533 45.6015 8.28C45.5588 8.19466 45.2815 8.152 44.7695 8.152H43.7455C43.5748 8.19467 43.3828 8.216 43.1695 8.216C42.9988 8.216 42.8282 8.216 42.6575 8.216C42.4442 8.216 42.2308 8.216 42.0175 8.216C41.8468 8.216 41.7188 8.19467 41.6335 8.152C40.6522 7.896 39.7348 7.74666 38.8815 7.704C38.0282 7.61866 37.0895 7.576 36.0655 7.576H34.5295L34.6575 7.384L34.1455 7.32L34.0815 7.512C33.9108 7.512 33.8255 7.55466 33.8255 7.64C33.8255 7.72533 33.9108 7.74666 34.0815 7.704C34.2522 7.704 34.3588 7.72533 34.4015 7.768C34.7002 7.768 34.8068 7.896 34.7215 8.152C34.5508 8.152 34.1668 8.10933 33.5695 8.024C33.0148 7.896 32.6735 7.832 32.5455 7.832C32.2895 7.91733 32.1615 8.04533 32.1615 8.216L30.8815 8.152L30.6255 7.96C30.5828 8.00267 30.5188 8.10933 30.4335 8.28C30.3908 8.45067 30.2842 8.536 30.1135 8.536C30.0282 8.536 29.9002 8.49333 29.7295 8.408C29.5588 8.32266 29.4095 8.28 29.2815 8.28C29.1108 8.28 29.0255 8.344 29.0255 8.472C29.0255 8.64266 29.0468 8.74933 29.0895 8.792L27.8735 8.856C27.9162 8.77066 27.9588 8.728 28.0015 8.728C28.0442 8.68533 28.0868 8.64266 28.1295 8.6L28.3855 8.408L28.3215 8.344L27.3615 8.92L27.1695 8.792L27.5535 8.664L24.0975 8.728C24.0122 8.64266 23.9268 8.6 23.8415 8.6C23.7562 8.6 23.6495 8.64266 23.5215 8.728C23.3935 8.81333 23.3295 8.89867 23.3295 8.984C23.3295 9.06933 23.4148 9.112 23.5855 9.112L23.8415 8.92C23.8842 8.87733 23.9908 8.856 24.1615 8.856C24.2042 8.856 24.2895 8.87733 24.4175 8.92C24.5882 8.92 24.6948 8.94133 24.7375 8.984V8.792L25.3775 8.984L24.4175 9.176L24.3535 9.368H24.5455L25.5055 9.176L25.5695 8.984L25.9535 9.304L24.0975 9.56L23.5855 10.008L23.0095 9.496L21.1535 10.008L21.0895 10.136L21.2175 10.2V10.136L22.9455 9.816L23.0095 10.008L22.1135 10.392H22.0495L22.4975 10.456L17.5055 12.248L17.2495 12.184L15.8415 13.016L15.6495 12.888C15.3508 13.1013 15.0522 13.3147 14.7535 13.528C14.4548 13.7413 14.1562 13.9547 13.8575 14.168L13.1535 14.104L11.5535 15.192L11.7455 15.256L10.9135 15.96L10.9775 15.64C10.9775 15.64 10.8495 15.8107 10.5935 16.152C10.3802 16.4507 10.1455 16.7707 9.8895 17.112C9.67617 17.4533 9.52683 17.6667 9.4415 17.752L9.5055 17.816L9.8895 17.24V17.304C9.5055 17.8587 9.3135 18.4347 9.3135 19.032C9.3135 19.416 9.5695 19.8427 10.0815 20.312C10.6362 20.7813 11.1695 21.2507 11.6815 21.72C12.1935 22.1467 12.4495 22.488 12.4495 22.744C12.4495 22.7867 12.4282 22.808 12.3855 22.808C11.8308 22.808 11.2548 22.616 10.6575 22.232L9.0575 21.272C8.24683 20.76 7.5855 20.376 7.0735 20.12C6.60417 19.8213 6.19883 19.4587 5.8575 19.032C5.55883 18.6053 5.2175 17.9227 4.8335 16.984C4.9615 16.9413 5.0255 17.048 5.0255 17.304C5.19617 17.304 5.2815 17.1547 5.2815 16.856C5.2815 16.6427 5.2175 16.536 5.0895 16.536L4.8975 16.856V16.792L5.0895 15.704H5.2815C5.36683 15.704 5.45217 15.5973 5.5375 15.384C5.62283 15.128 5.68683 14.9787 5.7295 14.936L5.6015 15.064C5.55883 15.1067 5.51617 15.128 5.4735 15.128H5.4095L6.1135 13.784L6.2415 13.848L8.1615 11.736L8.2895 11.8L8.3535 11.608L8.4175 11.672C8.71617 11.672 8.90817 11.5653 8.9935 11.352C9.07883 11.352 9.16417 11.3307 9.2495 11.288H9.5055C9.67617 11.288 9.80417 11.2667 9.8895 11.224C9.8895 11.1813 9.86817 11.16 9.8255 11.16V10.648L9.7615 10.584C9.80417 10.6267 9.86817 10.648 9.9535 10.648L10.0815 10.776C10.1668 10.6907 10.3375 10.584 10.5935 10.456C10.8495 10.328 10.9775 10.2213 10.9775 10.136C10.9775 10.0933 10.9562 10.072 10.9135 10.072C10.8708 10.072 10.8495 10.0507 10.8495 10.008H11.1055C11.1482 10.0507 11.2122 10.072 11.2975 10.072C11.5535 10.072 11.9162 9.90133 12.3855 9.56C12.8548 9.21866 13.2175 9.048 13.4735 9.048C13.6015 9.048 13.6228 9.112 13.5375 9.24L14.1135 8.984V8.856H14.4335L15.8415 8.216C15.7135 8.17333 15.6068 8.13066 15.5215 8.088C15.4362 8.04533 15.3508 8.00267 15.2655 7.96L15.8415 7.832V7.768C16.0975 7.72533 16.3535 7.68267 16.6095 7.64C16.8655 7.59733 17.1215 7.55466 17.3775 7.512L18.9135 7.32V7.256L21.8575 6.616C22.4122 6.488 22.9242 6.424 23.3935 6.424C23.9055 6.38133 24.3748 6.38133 24.8015 6.424C25.2708 6.21066 25.5482 6.06133 25.6335 5.976C26.3588 6.104 27.0415 6.168 27.6815 6.168L26.3375 5.912L28.3855 5.72L28.4495 5.784L33.1215 5.208L33.3775 5.336L34.9135 5.144C35.1268 5.10133 35.3615 5.08 35.6175 5.08C35.8735 5.08 36.1295 5.08 36.3855 5.08C36.7695 5.08 37.0255 5.10133 37.1535 5.144L37.2175 5.208L40.6095 5.272C40.6522 5.272 40.6735 5.25067 40.6735 5.208H40.6095C40.3108 5.208 40.4388 5.208 40.9935 5.208C41.5482 5.208 41.9748 5.18666 42.2735 5.144C42.5295 5.10133 42.7855 5.08 43.0415 5.08C43.2975 5.08 43.5748 5.08 43.8735 5.08C44.4282 5.08 44.9828 5.144 45.5375 5.272C46.1348 5.4 46.6042 5.72 46.9455 6.232C47.0308 6.01867 47.0948 5.80533 47.1375 5.592C47.1802 5.37867 47.2228 5.16533 47.2655 4.952C48.1188 4.99466 48.9935 5.10133 49.8895 5.272C50.8282 5.44266 51.6175 5.76266 52.2575 6.232C52.8975 6.65866 53.2175 7.36266 53.2175 8.344C53.2175 8.68533 53.0895 9.21866 52.8335 9.944C52.6202 10.6693 52.3428 11.4587 52.0015 12.312C51.7028 13.1227 51.4042 13.8693 51.1055 14.552C50.8068 15.192 50.4442 15.9387 50.0175 16.792C49.6335 17.6027 49.2495 18.3493 48.8655 19.032C48.5242 19.672 48.2255 20.12 47.9695 20.376C47.8415 20.9307 47.5428 21.6987 47.0735 22.68C46.6468 23.6613 46.1135 24.728 45.4735 25.88C44.8762 27.032 44.2575 28.1627 43.6175 29.272C43.0202 30.3813 42.5295 31.3413 42.1455 32.152C42.0602 32.2373 42.0175 32.344 42.0175 32.472L42.0815 32.536C42.5935 32.536 43.0628 32.472 43.4895 32.344C43.8735 32.216 44.3215 32.1947 44.8335 32.28V32.216C47.6068 31.4907 50.4228 31.0853 53.2815 31C56.1828 30.9147 59.0415 30.872 61.8575 30.872C61.9428 30.872 62.0495 30.872 62.1775 30.872C62.3482 30.8293 62.5188 30.7867 62.6895 30.744C62.8175 30.7013 63.0308 30.3813 63.3295 29.784C63.6282 29.1867 63.9268 28.504 64.2255 27.736C64.5668 26.9253 64.8442 26.2213 65.0575 25.624C65.3135 25.0267 65.4628 24.7067 65.5055 24.664L67.7455 20.312C68.0442 19.7147 68.3428 19.1387 68.6415 18.584C68.9828 17.9867 69.3028 17.4107 69.6015 16.856C69.9002 16.3013 70.1775 15.7467 70.4335 15.192C70.7322 14.5947 71.0095 13.9973 71.2655 13.4C71.3508 13.1867 71.4362 12.9733 71.5215 12.76C71.6068 12.504 71.6708 12.248 71.7135 11.992C71.7562 11.5227 71.9055 11.096 72.1615 10.712H72.2895C72.7162 10.712 73.2282 10.7973 73.8255 10.968C74.4228 11.1387 74.9562 11.3947 75.4255 11.736C75.9375 12.0347 76.1935 12.3973 76.1935 12.824C76.1935 13.464 75.9375 14.104 75.4255 14.744C74.9562 15.3413 74.4228 15.9387 73.8255 16.536C73.2282 17.1333 72.7162 17.7307 72.2895 18.328C71.6068 19.3093 70.9668 20.3333 70.3695 21.4C69.8148 22.424 69.2815 23.4693 68.7695 24.536L65.5695 31.064H65.6335C65.7615 31.064 65.7828 31.1067 65.6975 31.192C65.8255 31.1493 65.9962 31.128 66.2095 31.128H66.7215C67.1908 31.128 67.8948 31.2133 68.8335 31.384C69.8148 31.512 70.7748 31.6827 71.7135 31.896C72.6522 32.1093 73.2708 32.344 73.5695 32.6C73.6122 32.6 73.6335 32.6427 73.6335 32.728C73.6335 32.856 73.4628 32.9627 73.1215 33.048C72.9508 33.0907 72.8015 33.112 72.6735 33.112C72.5882 33.112 72.5242 33.1333 72.4815 33.176C71.8842 33.0053 71.3082 32.8987 70.7535 32.856C70.1988 32.7707 69.6228 32.7067 69.0255 32.664C68.8122 32.6213 68.5775 32.6 68.3215 32.6C68.1082 32.6 67.8948 32.6 67.6815 32.6C67.4682 32.6 67.2335 32.6 66.9775 32.6C66.7642 32.5573 66.5508 32.5147 66.3375 32.472C66.2095 32.5147 66.0815 32.5573 65.9535 32.6C65.8255 32.6 65.6975 32.5787 65.5695 32.536C65.2708 32.4933 65.0148 32.5787 64.8015 32.792C64.6735 32.8773 64.4388 33.304 64.0975 34.072C63.7988 34.7973 63.4788 35.5867 63.1375 36.44C62.8388 37.2933 62.6042 37.976 62.4335 38.488C62.2628 39.0427 62.0068 39.768 61.6655 40.664C61.3668 41.5173 61.0895 42.3493 60.8335 43.16C60.5775 43.928 60.4495 44.4613 60.4495 44.76H60.3215C60.1082 45.1013 59.8522 45.7627 59.5535 46.744C59.2548 47.7253 58.9988 48.728 58.7855 49.752C58.6148 50.7333 58.5295 51.4587 58.5295 51.928C58.5295 52.3547 58.7002 52.7173 59.0415 53.016C59.4255 53.272 59.6175 53.656 59.6175 54.168C59.6175 54.5947 59.3615 55.1067 58.8495 55.704C58.3802 56.344 57.8255 56.8987 57.1855 57.368C56.5455 57.8373 55.9908 58.072 55.5215 58.072C55.0948 58.072 54.7748 57.7307 54.5615 57.048C54.3482 56.3653 54.1988 55.5547 54.1135 54.616C54.0282 53.6773 53.9428 52.7813 53.8575 51.928C53.7722 51.0747 53.6655 50.4987 53.5375 50.2C53.2815 49.6027 52.7482 48.792 51.9375 47.768C51.1268 46.744 50.1455 45.6773 48.9935 44.568C47.8842 43.416 46.7108 42.328 45.4735 41.304C44.2788 40.28 43.1482 39.448 42.0815 38.808C41.0575 38.168 40.2255 37.848 39.5855 37.848C39.5002 37.976 39.3935 38.0827 39.2655 38.168C39.0948 38.3387 38.9882 38.4667 38.9455 38.552C38.6468 38.936 38.3695 39.3413 38.1135 39.768C37.9002 40.1947 37.7082 40.6427 37.5375 41.112C37.3668 41.5813 37.1748 42.0507 36.9615 42.52C36.7482 42.9467 36.5348 43.3733 36.3215 43.8C34.5295 46.9147 32.5242 49.752 30.3055 52.312C28.1295 54.872 25.5055 57.1547 22.4335 59.16C22.0495 59.3733 21.5162 59.736 20.8335 60.248C20.1508 60.76 19.5962 61.0587 19.1695 61.144ZM26.8495 9.368C26.7215 9.368 26.6362 9.34666 26.5935 9.304H26.2735L26.0815 9.176C26.1668 9.176 26.2735 9.15467 26.4015 9.112C26.5295 9.06933 26.6575 9.048 26.7855 9.048L27.1055 9.304H26.9775C26.9348 9.34666 26.8922 9.368 26.8495 9.368ZM15.4575 62.168C13.3242 62.168 11.4255 61.6773 9.7615 60.696C8.14017 59.7147 6.8815 58.3707 5.9855 56.664C5.0895 54.9573 4.6415 53.0373 4.6415 50.904C4.6415 49.24 4.9615 47.6827 5.6015 46.232C5.94283 45.5067 6.26283 44.7813 6.5615 44.056C6.86017 43.288 7.15883 42.5413 7.4575 41.816L7.2015 41.24C7.54283 40.856 7.79883 40.472 7.9695 40.088L8.5455 38.872C8.71617 38.5307 8.90817 38.2107 9.1215 37.912C9.3775 37.5707 9.65483 37.2507 9.9535 36.952C10.5082 36.44 10.9562 35.8213 11.2975 35.096L11.7455 34.84C11.9588 34.4987 12.3215 34.0293 12.8335 33.432C13.3882 32.792 13.9855 32.152 14.6255 31.512C15.2655 30.872 15.8628 30.3387 16.4175 29.912C17.0148 29.4427 17.5055 29.1867 17.8895 29.144L17.7615 28.632L19.1055 27.672L19.8095 28.056C18.7428 28.7813 17.6335 29.8693 16.4815 31.32C15.3722 32.7707 14.2842 34.4133 13.2175 36.248C12.1508 38.0827 11.1695 39.9813 10.2735 41.944C9.42017 43.864 8.7375 45.72 8.2255 47.512C7.7135 49.2613 7.4575 50.7973 7.4575 52.12C7.4575 54.9787 8.1615 57.176 9.5695 58.712C10.9775 60.248 13.0255 61.016 15.7135 61.016C16.1402 61.016 16.5668 60.9947 16.9935 60.952C17.4628 60.952 17.8895 60.888 18.2735 60.76L18.1455 61.336C17.6335 61.3787 17.2068 61.5493 16.8655 61.848C16.5242 62.0613 16.0548 62.168 15.4575 62.168ZM55.9695 49.304C56.5242 48.4933 56.8655 47.5973 56.9935 46.616C57.0788 46.1467 57.1642 45.6773 57.2495 45.208C57.3348 44.7387 57.4628 44.2907 57.6335 43.864C58.2308 41.944 58.9348 40.1093 59.7455 38.36C60.1295 37.464 60.4922 36.568 60.8335 35.672C61.2175 34.776 61.5588 33.8587 61.8575 32.92L61.7295 32.728L60.3215 32.92C60.0655 32.9627 59.8095 33.0053 59.5535 33.048C59.2975 33.048 59.0415 33.048 58.7855 33.048L58.6575 32.92V32.664H58.9135V32.472H58.4655C57.8682 32.8133 57.0575 33.048 56.0335 33.176C55.0095 33.304 53.9428 33.3893 52.8335 33.432C51.7668 33.4747 50.8708 33.56 50.1455 33.688L49.9535 33.304C49.6548 33.56 49.1002 33.752 48.2895 33.88C47.5215 33.9653 46.6682 34.0507 45.7295 34.136C44.7908 34.2213 43.8735 34.3493 42.9775 34.52C42.1242 34.648 41.4415 34.84 40.9295 35.096C40.7588 35.3093 40.5882 35.544 40.4175 35.8C40.2895 36.0133 40.1615 36.248 40.0335 36.504C40.3748 37.1013 40.8868 37.528 41.5695 37.784C42.1668 37.9973 42.7855 38.3173 43.4255 38.744C44.5775 39.4693 45.6868 40.2587 46.7535 41.112C47.8628 41.9653 48.9082 42.8613 49.8895 43.8C50.8708 44.7387 51.8522 45.6773 52.8335 46.616C53.8575 47.512 54.9028 48.408 55.9695 49.304ZM22.8815 36.952H23.0735L23.8415 36.888C24.5668 36.4613 25.3775 36.184 26.2735 36.056C27.0415 35.928 27.8522 35.6933 28.7055 35.352H28.7695L28.8335 35.288L27.6175 35.16C27.0628 35.3307 26.4015 35.4373 25.6335 35.48C24.9082 35.5227 24.2682 35.6293 23.7135 35.8C23.1588 35.9707 22.8815 36.3547 22.8815 36.952ZM85.6135 56.28C85.1868 55.768 84.7388 55.3627 84.2695 55.064C83.8428 54.808 83.4588 54.5093 83.1175 54.168C82.8188 53.784 82.6695 53.272 82.6695 52.632H82.7975L82.6055 51.672L82.4135 51.864L82.2855 52.056C82.3282 51.8853 82.3708 51.736 82.4135 51.608C82.4562 51.4373 82.4988 51.288 82.5415 51.16C82.5842 50.9467 82.6055 50.7547 82.6055 50.584C82.6482 50.3707 82.6695 50.1573 82.6695 49.944C82.6695 49.3893 82.7122 48.856 82.7975 48.344C82.8828 47.7893 82.9895 47.256 83.1175 46.744C83.2455 46.232 83.3522 45.72 83.4375 45.208C83.5655 44.6533 83.6722 44.0773 83.7575 43.48H83.8855L84.5895 41.816L84.5255 41.496C84.4402 41.6667 84.3762 41.7733 84.3335 41.816C84.2908 41.9013 84.2268 41.9867 84.1415 42.072C83.6722 42.7547 83.0962 43.5867 82.4135 44.568C81.7308 45.5067 81.0482 46.4027 80.3655 47.256C79.6828 48.0667 79.0642 48.6427 78.5095 48.984C78.1682 49.1973 77.9335 49.368 77.8055 49.496C77.6775 49.5813 77.5282 49.8373 77.3575 50.264C76.9308 50.3493 76.5042 50.6267 76.0775 51.096C75.6935 51.5653 75.3095 52.0133 74.9255 52.44C74.5415 52.8667 74.1148 53.1013 73.6455 53.144L73.5815 53.464C73.3255 53.72 72.9842 53.912 72.5575 54.04C72.1308 54.1253 71.7468 54.1893 71.4055 54.232C70.4668 53.8907 69.5495 53.4213 68.6535 52.824C67.7575 52.2267 67.3095 51.3947 67.3095 50.328C67.3095 49.9013 67.3735 49.5387 67.5015 49.24H67.5655V48.92C67.4802 48.792 67.4588 48.6213 67.5015 48.408C67.5442 48.1947 67.6082 48.088 67.6935 48.088L67.7575 48.152C67.8428 48.024 67.8855 47.8107 67.8855 47.512C67.9282 47.2133 67.9495 47.0213 67.9495 46.936L68.0775 46.808C68.0775 46.5093 68.2268 46.1893 68.5255 45.848C68.8242 45.5067 69.1015 45.1867 69.3575 44.888C69.6562 44.5893 69.8055 44.376 69.8055 44.248C69.8482 44.2053 69.8695 44.1413 69.8695 44.056C69.8695 43.8427 69.8482 43.672 69.8055 43.544C69.7202 43.3733 69.6988 43.224 69.7415 43.096V42.84H69.9975L70.1895 42.52V42.392C70.0615 42.3067 69.9975 42.2427 69.9975 42.2V42.072C69.9975 41.944 70.0402 41.8373 70.1255 41.752L70.3175 41.56V41.496C70.3175 41.4533 70.3388 41.4107 70.3815 41.368V41.24L70.7015 40.92C70.8722 40.7493 71.0002 40.6427 71.0855 40.6C71.4268 40.1307 71.7042 39.704 71.9175 39.32H72.1735L72.2375 39.384C72.1948 39.2987 72.1522 39.2347 72.1095 39.192C72.1095 39.1493 72.1095 39.1067 72.1095 39.064C72.1095 38.7227 72.3868 38.232 72.9415 37.592C73.5388 36.952 74.2428 36.2693 75.0535 35.544C75.8642 34.776 76.6535 34.072 77.4215 33.432C78.1895 32.7493 78.7868 32.216 79.2135 31.832V31.512H79.3415C79.5122 31.4267 79.6828 31.2987 79.8535 31.128C80.0668 30.9573 80.2802 30.7867 80.4935 30.616C80.9202 30.1893 81.2828 29.9547 81.5815 29.912L81.7095 29.592L82.0935 29.528C82.1362 29.4853 82.1788 29.4427 82.2215 29.4C82.2642 29.3573 82.3068 29.3147 82.3495 29.272C82.4348 29.2293 82.4988 29.208 82.5415 29.208C82.5842 29.208 82.6268 29.1867 82.6695 29.144L82.7335 29.08L82.8615 29.016V28.952C82.8615 28.9093 82.8828 28.8667 82.9255 28.824L84.0775 28.376L84.2055 28.44L85.1015 28.056L85.2935 27.864H85.3575L86.1895 27.8L86.6375 27.544L86.7655 27.416V27.48L86.8295 27.416L86.9575 27.544C87.3415 27.3733 87.7255 27.288 88.1095 27.288C88.4935 27.288 89.0055 27.352 89.6455 27.48C90.2855 27.608 90.8828 27.8213 91.4375 28.12C91.9922 28.376 92.3122 28.7387 92.3975 29.208V29.336L91.0535 30.104C91.1388 29.8907 91.2028 29.7627 91.2455 29.72V29.656C91.2455 29.5707 91.1602 29.528 90.9895 29.528H90.6055C89.7095 29.528 88.8775 29.784 88.1095 30.296C87.3842 30.808 86.6802 31.32 85.9975 31.832C85.6135 31.9173 85.2082 32.1733 84.7815 32.6C84.3548 33.0267 83.9708 33.3467 83.6295 33.56C81.9655 34.84 80.4508 36.12 79.0855 37.4C77.7628 38.6373 76.5042 40.1307 75.3095 41.88C75.0962 42.2213 74.8188 42.6693 74.4775 43.224C74.1362 43.736 73.8375 44.0987 73.5815 44.312C73.3682 44.696 73.1548 45.08 72.9415 45.464C72.7282 45.848 72.5362 46.2533 72.3655 46.68C72.1948 47.1067 72.0028 47.512 71.7895 47.896C71.5762 48.28 71.3628 48.6427 71.1495 48.984C71.1495 49.496 71.0855 49.9867 70.9575 50.456C70.8722 50.712 70.8295 50.9253 70.8295 51.096C70.7868 51.224 70.7655 51.352 70.7655 51.48C70.7655 51.608 70.7442 51.7147 70.7015 51.8L70.9575 52.376C71.4695 52.1627 72.0882 51.8853 72.8135 51.544C73.5388 51.2027 73.9015 50.8187 73.9015 50.392C74.1575 50.3067 74.2855 50.264 74.2855 50.264H74.4135V50.136C74.4988 50.0507 74.5628 50.008 74.6055 50.008H74.7975L74.9895 49.752V49.432L75.2455 49.688L76.0775 48.856C76.0775 48.6427 76.2268 48.5147 76.5255 48.472C77.2508 47.8747 77.8908 47.1707 78.4455 46.36C78.7442 45.9333 79.0428 45.528 79.3415 45.144C79.6402 44.76 79.9602 44.3973 80.3015 44.056H80.4295L81.2615 43.032L81.1975 42.776L82.0935 41.624H82.2215C82.3068 41.368 82.4348 41.112 82.6055 40.856L82.7975 40.984L83.3095 40.28L83.2455 40.216C83.4588 39.8747 83.6935 39.5333 83.9495 39.192C84.2055 38.8507 84.4615 38.5307 84.7175 38.232C84.9735 37.8907 85.2082 37.5493 85.4215 37.208C85.6775 36.8667 85.9122 36.5253 86.1255 36.184C86.1255 35.8853 86.2322 35.608 86.4455 35.352C86.6588 35.096 86.9362 34.968 87.2775 34.968L87.7255 35.096C87.8962 34.7973 87.9815 34.328 87.9815 33.688C88.1948 33.7307 88.3655 33.688 88.4935 33.56C88.4935 33.56 88.6215 33.5173 88.8775 33.432V33.56L89.3895 33.752C89.5602 33.6667 89.6882 33.624 89.7735 33.624C90.1148 33.624 90.4562 33.7307 90.7975 33.944C91.1388 34.1147 91.4375 34.3067 91.6935 34.52C91.6935 34.6053 91.7148 34.6267 91.7575 34.584C91.7575 34.5413 91.7788 34.52 91.8215 34.52H92.1415C92.6962 34.52 92.9735 34.7547 92.9735 35.224V35.416C92.7602 35.7147 92.5468 36.0133 92.3335 36.312C92.1628 36.6107 91.9922 36.9093 91.8215 37.208C91.4802 37.8053 91.0108 38.3387 90.4135 38.808V38.936L89.3895 40.408L89.5175 40.664L87.3415 43.352L87.1495 43.416C87.0642 43.7147 86.9575 44.0133 86.8295 44.312C86.7442 44.568 86.6375 44.8453 86.5095 45.144L85.9335 45.336C86.0188 45.4213 86.0615 45.528 86.0615 45.656C86.0615 45.8267 86.0828 45.9333 86.1255 45.976C85.7842 46.616 85.4855 47.256 85.2295 47.896C85.0162 48.536 84.9522 49.2187 85.0375 49.944C84.9095 50.0293 84.8242 50.1573 84.7815 50.328C84.7815 50.456 84.7815 50.584 84.7815 50.712C84.7815 50.9253 84.7815 51.1387 84.7815 51.352C84.8242 51.5227 84.8668 51.7147 84.9095 51.928C84.9522 52.1413 84.9948 52.3547 85.0375 52.568C85.0802 52.7813 85.1228 52.9947 85.1655 53.208L85.8695 52.824H86.0615L86.1255 52.76L86.2535 52.568C86.2535 52.44 86.3175 52.2907 86.4455 52.12L86.5735 52.632L87.1495 52.376V52.632H87.2135C87.3842 52.632 87.5122 52.504 87.5975 52.248C87.6828 52.1627 87.7895 52.0773 87.9175 51.992C88.0455 51.864 88.1948 51.8 88.3655 51.8L88.4295 51.672V51.48C88.4295 51.2667 88.5788 51.096 88.8775 50.968C89.0482 50.9253 89.1762 50.8827 89.2615 50.84C89.3895 50.7547 89.4962 50.712 89.5815 50.712H89.6455L91.3095 49.048H91.3735C91.4588 48.92 91.6295 48.7493 91.8855 48.536C92.1842 48.28 92.4402 48.1093 92.6535 48.024V47.576L93.1015 47.448H93.1655L94.6375 45.4C94.6375 45.4427 94.6802 45.464 94.7655 45.464C94.8508 45.464 94.9148 45.4853 94.9575 45.528C95.0002 45.528 95.0642 45.464 95.1495 45.336C95.2775 45.1653 95.3415 45.0373 95.3415 44.952C95.3842 44.9093 95.4268 44.8667 95.4695 44.824C95.5548 44.7387 95.6828 44.6747 95.8535 44.632C95.9815 44.5467 96.0882 44.504 96.1735 44.504C96.2588 44.4613 96.3228 44.4187 96.3655 44.376C95.8962 45.272 95.4695 46.0827 95.0855 46.808C94.7442 47.5333 94.4028 48.2587 94.0615 48.984C93.7202 49.7093 93.3362 50.4133 92.9095 51.096C92.4828 51.736 91.9495 52.376 91.3095 53.016L91.0535 52.76L91.5015 52.184L91.4375 51.8L91.3095 51.864V52.12L90.8615 52.568C90.8188 53.1227 90.6268 53.528 90.2855 53.784H90.0295L89.9015 53.72V54.04L89.5175 54.488L89.3255 54.424L88.5575 55.512V55.32L88.4295 55.384C88.3442 55.4267 88.2588 55.4693 88.1735 55.512C88.0882 55.5547 88.0028 55.5973 87.9175 55.64C87.6615 55.7253 87.5122 55.8533 87.4695 56.024L85.6135 56.28ZM92.0135 51.224C92.0135 51.096 92.0348 51.0107 92.0775 50.968L92.2055 50.776L91.9495 50.84H92.0135L91.8215 51.16L91.8855 51.096L92.0135 51.224ZM104.438 50.328C104.31 50.328 104.203 50.2853 104.118 50.2C104.075 50.2427 103.947 50.264 103.734 50.264C103.179 50.264 102.625 49.88 102.07 49.112C101.515 48.344 101.238 47.6827 101.238 47.128C101.238 46.1467 101.494 45.1227 102.006 44.056L103.414 41.112C103.67 40.6 103.798 40.2587 103.798 40.088C103.798 40.088 103.691 39.9173 103.478 39.576L103.158 39.256C103.073 39.1707 102.987 39.1067 102.902 39.064C102.859 38.9787 102.795 38.8933 102.71 38.808C102.454 38.5093 102.198 38.168 101.942 37.784C101.686 37.4 101.515 36.952 101.43 36.44C101.345 36.5253 101.153 36.8453 100.854 37.4C100.555 37.9547 100.257 38.488 99.958 39C99.6593 39.512 99.4247 39.768 99.254 39.768C99.1687 39.768 99.1047 39.7467 99.062 39.704C99.0193 39.6613 98.9553 39.64 98.87 39.64C98.7847 39.64 98.678 39.8107 98.55 40.152C98.3793 40.408 98.1447 40.792 97.846 41.304C97.5473 41.7733 97.2487 42.2213 96.95 42.648C96.6513 43.0747 96.374 43.288 96.118 43.288C95.9473 43.288 95.862 43.2027 95.862 43.032C95.862 42.904 95.9473 42.6693 96.118 42.328C96.2887 41.944 96.4807 41.5813 96.694 41.24C96.95 40.856 97.1207 40.6213 97.206 40.536C97.718 39.8107 98.1447 39.1707 98.486 38.616C98.8273 38.0613 99.1473 37.4853 99.446 36.888C99.702 36.3333 99.958 35.7787 100.214 35.224C100.513 34.6267 100.854 33.9653 101.238 33.24C101.323 32.6427 101.451 32.024 101.622 31.384C102.262 29.464 103.009 27.8 103.862 26.392C104.758 24.9413 105.867 23.4693 107.19 21.976C107.489 21.6773 107.83 21.3147 108.214 20.888C108.641 20.4187 109.067 19.992 109.494 19.608C109.921 19.224 110.283 19.032 110.582 19.032C110.838 19.032 111.137 19.1387 111.478 19.352C111.649 19.4373 111.798 19.5227 111.926 19.608C112.054 19.6933 112.182 19.7787 112.31 19.864L113.59 20.568C114.059 20.824 114.294 21.2293 114.294 21.784C114.294 21.9973 114.273 22.1253 114.23 22.168C114.102 22.6373 113.675 23.1493 112.95 23.704C112.267 24.216 111.499 24.7493 110.646 25.304C109.835 25.8587 109.174 26.392 108.662 26.904C107.894 27.5867 107.233 28.3547 106.678 29.208C106.123 30.0613 105.611 30.9787 105.142 31.96C105.099 32.1307 105.035 32.28 104.95 32.408C104.907 32.536 104.865 32.6853 104.822 32.856C104.779 33.1547 104.673 33.496 104.502 33.88C104.459 33.9653 104.417 34.072 104.374 34.2C104.331 34.2853 104.31 34.392 104.31 34.52C104.31 34.7333 104.331 34.8827 104.374 34.968C104.417 35.096 104.438 35.2667 104.438 35.48C104.438 35.736 104.417 35.9067 104.374 35.992C104.331 36.12 104.31 36.312 104.31 36.568C104.31 37.0373 104.545 37.4853 105.014 37.912C105.483 38.296 105.931 38.7227 106.358 39.192C106.827 39.6613 107.062 40.1947 107.062 40.792C107.062 41.304 106.891 41.9227 106.55 42.648C106.209 43.3733 105.825 44.0987 105.398 44.824C104.971 45.5493 104.63 46.2107 104.374 46.808L104.054 47.576L103.926 48.024C103.926 48.1093 103.947 48.152 103.99 48.152L104.118 48.344C104.502 48.344 105.035 48.0667 105.718 47.512C106.401 46.9573 107.083 46.36 107.766 45.72C108.449 45.0373 108.918 44.568 109.174 44.312C109.686 43.7573 110.155 43.1813 110.582 42.584C111.009 41.944 111.414 41.304 111.798 40.664C111.883 40.4507 112.011 40.216 112.182 39.96C112.395 39.6613 112.609 39.512 112.822 39.512C113.078 39.512 113.206 39.6613 113.206 39.96C113.206 40.216 112.971 40.728 112.502 41.496C112.075 42.2213 111.606 42.9467 111.094 43.672C110.582 44.3973 110.219 44.8667 110.006 45.08L109.942 45.208V45.272C109.814 45.5707 109.622 45.7627 109.366 45.848C109.323 45.8907 109.259 45.9973 109.174 46.168C109.089 46.3387 109.025 46.4453 108.982 46.488C108.982 46.5733 108.918 46.6587 108.79 46.744L108.534 46.808C108.491 46.9787 108.363 47.128 108.15 47.256L107.766 47.64C107.723 47.64 107.702 47.6613 107.702 47.704C107.702 47.7467 107.681 47.768 107.638 47.768C107.595 48.024 107.425 48.152 107.126 48.152C107.041 48.3227 106.913 48.536 106.742 48.792C106.614 49.048 106.443 49.176 106.23 49.176C106.017 49.4747 105.739 49.624 105.398 49.624C105.355 49.6667 105.334 49.7307 105.334 49.816C105.334 49.8587 105.313 49.9013 105.27 49.944C105.185 50.1573 104.993 50.264 104.694 50.264C104.651 50.3067 104.566 50.328 104.438 50.328ZM110.423 54.552C109.996 54.552 109.634 54.3387 109.335 53.912C109.079 53.4853 108.951 53.1013 108.951 52.76C108.951 52.632 108.994 52.44 109.079 52.184C109.122 52.0987 109.164 52.0133 109.207 51.928C109.25 51.8427 109.292 51.7573 109.335 51.672C109.42 51.416 109.463 51.2027 109.463 51.032C109.463 50.8613 109.506 50.648 109.591 50.392C109.676 50.0933 109.783 49.7733 109.911 49.432C110.039 49.0907 110.188 48.728 110.359 48.344C110.444 48.1733 110.487 48.024 110.487 47.896C110.487 47.7253 110.508 47.5973 110.551 47.512H110.487C110.359 47.384 110.295 47.2987 110.295 47.256L110.359 47.192C110.444 46.9787 110.572 46.7227 110.743 46.424C110.914 46.1253 111.106 45.9333 111.319 45.848C111.49 45.5067 111.724 45.0587 112.023 44.504C112.322 43.9067 112.578 43.3307 112.791 42.776C113.047 42.1787 113.175 41.7307 113.175 41.432L113.303 41.24H113.175V40.92L113.303 40.664L112.983 40.6L113.175 40.472V40.344C113.09 40.2587 113.047 40.1733 113.047 40.088C113.047 40.0027 113.068 39.9387 113.111 39.896L113.303 39.256L113.495 38.68C113.367 38.68 113.303 38.616 113.303 38.488C113.303 38.0187 113.41 37.6133 113.623 37.272C113.836 36.76 113.943 36.312 113.943 35.928V35.8C113.9 35.8 113.879 35.7573 113.879 35.672L113.815 35.48V35.352C113.772 35.352 113.751 35.3307 113.751 35.288C113.751 35.2027 113.815 35.096 113.943 34.968L114.263 34.648C114.092 34.5627 113.986 34.4987 113.943 34.456C113.772 34.3707 113.666 34.3067 113.623 34.264V34.2C113.538 34.2853 113.452 34.2853 113.367 34.2L113.047 34.136C112.962 34.136 112.812 34.1147 112.599 34.072C112.428 33.9867 112.343 33.88 112.343 33.752C112.343 33.6667 112.428 33.5813 112.599 33.496C112.77 33.368 112.898 33.304 112.983 33.304C113.41 33.3893 114.007 33.5173 114.775 33.688C115.543 33.8587 116.268 34.072 116.951 34.328C117.676 34.5413 118.103 34.8187 118.231 35.16C118.316 35.3307 118.359 35.544 118.359 35.8C118.359 36.1413 118.274 36.568 118.103 37.08C117.932 37.592 117.783 37.976 117.655 38.232C117.655 38.4027 117.57 38.488 117.399 38.488H117.463C117.378 38.6587 117.271 38.8507 117.143 39.064C117.015 39.2773 116.844 39.4267 116.631 39.512L116.695 39.704C116.823 39.832 116.887 40.0027 116.887 40.216C116.887 40.472 116.759 40.6427 116.503 40.728L116.439 40.856V41.176C116.439 41.4747 116.332 41.7093 116.119 41.88C116.076 42.0507 115.97 42.3493 115.799 42.776C115.628 43.16 115.479 43.3947 115.351 43.48L115.223 43.8V43.864C115.223 43.992 115.18 44.056 115.095 44.056L115.031 44.12C114.903 44.376 114.732 44.6107 114.519 44.824C114.434 44.952 114.348 45.08 114.263 45.208C114.22 45.2933 114.242 45.4213 114.327 45.592H114.263C114.263 45.72 114.242 45.784 114.199 45.784C114.114 45.912 114.028 46.0613 113.943 46.232C113.858 46.36 113.708 46.4667 113.495 46.552C113.41 46.8507 113.303 47.1493 113.175 47.448C113.09 47.7467 112.983 48.0667 112.855 48.408C112.556 49.176 112.3 49.944 112.087 50.712C112.3 50.9253 112.578 51.032 112.919 51.032C113.047 51.032 113.175 51.032 113.303 51.032C113.431 50.9893 113.559 50.9467 113.687 50.904C113.772 50.8187 113.9 50.7547 114.071 50.712C114.242 50.6267 114.348 50.6053 114.391 50.648C115.33 50.3067 116.204 49.816 117.015 49.176C117.826 48.4933 118.615 47.7467 119.383 46.936L119.447 47.128C120.642 45.7627 121.772 44.1627 122.839 42.328C123.948 40.4507 124.844 38.5307 125.527 36.568C126.21 34.6053 126.551 32.856 126.551 31.32C126.551 30.1253 126.38 29.4 126.039 29.144C125.698 28.888 124.972 28.76 123.863 28.76C123.564 28.76 123.308 28.7387 123.095 28.696C122.882 28.6107 122.775 28.376 122.775 27.992C122.946 28.0347 123.308 27.992 123.863 27.864C124.46 27.6933 124.844 27.5653 125.015 27.48C126.338 27.48 127.383 27.8427 128.151 28.568C128.919 29.2507 129.303 30.2747 129.303 31.64C129.303 32.7493 129.068 33.9227 128.599 35.16C128.172 36.3547 127.724 37.4427 127.255 38.424C126.999 38.936 126.508 39.6827 125.783 40.664C125.1 41.6027 124.332 42.6053 123.479 43.672C122.626 44.696 121.836 45.6133 121.111 46.424C120.386 47.2347 119.554 48.1093 118.615 49.048C117.676 49.9867 116.759 50.8187 115.863 51.544C115.01 52.2267 114.284 52.632 113.687 52.76C113.559 52.9307 113.26 53.1653 112.791 53.464C112.364 53.72 111.916 53.976 111.447 54.232C110.978 54.4453 110.636 54.552 110.423 54.552ZM113.751 45.656C113.751 45.6133 113.751 45.592 113.751 45.592C113.794 45.592 113.815 45.592 113.815 45.592L113.879 45.528L113.815 45.4C113.772 45.4853 113.751 45.5707 113.751 45.656ZM131.358 54.424C130.889 54.424 130.419 54.36 129.95 54.232C129.267 53.976 128.585 53.272 127.902 52.12L128.414 51.992L127.966 51.672L127.454 50.072H127.39C127.347 49.944 127.326 49.752 127.326 49.496V49.048C127.326 48.8773 127.433 48.5787 127.646 48.152C127.859 47.7253 128.051 47.32 128.222 46.936L127.582 47.064V46.744C127.625 46.7013 127.689 46.5947 127.774 46.424C127.817 46.296 127.923 46.2107 128.094 46.168C128.137 46.2107 128.158 46.2747 128.158 46.36L128.286 46.232V45.912C128.286 45.7413 128.286 45.5707 128.286 45.4C128.329 45.1867 128.414 45.016 128.542 44.888C128.542 44.632 128.563 44.4827 128.606 44.44L128.67 44.184H128.798V43.928L129.182 43.416C129.395 43.2027 129.523 43.096 129.566 43.096V43.032C129.523 43.0747 129.459 43.096 129.374 43.096C129.203 43.096 129.118 43.0107 129.118 42.84C129.118 42.7973 129.139 42.7547 129.182 42.712V42.392C129.225 42.3493 129.246 42.2427 129.246 42.072C129.246 41.9013 129.203 41.7733 129.118 41.688L129.566 41.176L129.822 41.24L129.758 41.176H129.886L129.95 41.112L130.142 40.408L130.462 40.92L130.654 39.832C130.697 39.6187 130.739 39.4053 130.782 39.192C130.825 38.9787 130.867 38.7653 130.91 38.552L131.614 38.488V37.976H131.422V37.656L131.742 37.336V37.4L131.806 37.336V37.016L132.382 36.632V36.376C132.681 36.2053 132.937 35.9067 133.15 35.48C133.278 35.1813 133.577 34.9893 134.046 34.904H133.662L133.726 34.84L133.47 35.032V34.52H133.598L133.662 34.392H133.726L133.854 34.136V33.816C134.11 33.6453 134.366 33.432 134.622 33.176C134.921 32.92 135.07 32.6427 135.07 32.344L135.326 32.152V31.896L135.582 32.024L136.414 31.256V31L136.926 30.68L137.182 30.296C137.182 30.168 137.246 30.104 137.374 30.104C137.417 30.104 137.502 30.1467 137.63 30.232C137.801 30.2747 137.929 30.3173 138.014 30.36H138.398C139.081 30.36 139.763 30.616 140.446 31.128C141.129 31.5973 141.705 32.1733 142.174 32.856C142.643 33.5387 142.878 34.2213 142.878 34.904C142.878 35.1173 142.942 35.3307 143.07 35.544C143.113 35.672 143.134 35.8 143.134 35.928C143.177 36.056 143.198 36.2053 143.198 36.376V36.632C143.198 36.8027 143.177 36.9093 143.134 36.952C142.409 38.6587 141.278 40.3013 139.742 41.88C138.249 43.4587 136.691 44.696 135.07 45.592C134.729 45.7627 134.345 45.9333 133.918 46.104C133.491 46.2747 133.065 46.36 132.638 46.36C132.51 46.36 132.425 46.3387 132.382 46.296L131.934 46.168C132.062 46.1253 132.254 46.0187 132.51 45.848C132.595 45.8053 132.681 45.7627 132.766 45.72C132.851 45.6773 132.937 45.6347 133.022 45.592L133.406 45.4C133.491 45.4 133.555 45.3787 133.598 45.336L133.534 45.272C133.534 45.1013 133.641 45.016 133.854 45.016C134.11 44.8453 134.323 44.7387 134.494 44.696L135.134 44.504C135.39 44.4187 135.603 44.3547 135.774 44.312C135.987 44.2267 136.094 44.0987 136.094 43.928C136.265 43.8 136.478 43.5227 136.734 43.096C137.033 42.584 137.246 42.264 137.374 42.136L137.95 42.008L138.59 41.048L138.462 40.792L138.974 40.536V40.28H139.102C139.571 39.768 139.934 39.32 140.19 38.936C140.489 38.5093 140.745 37.9547 140.958 37.272C140.958 37.1867 141.022 37.144 141.15 37.144V37.08C141.406 36.568 141.534 36.0773 141.534 35.608C141.534 34.584 141.043 34.072 140.062 34.072C139.977 34.072 139.87 34.0507 139.742 34.008C139.571 34.008 139.486 34.0507 139.486 34.136H139.806L139.486 34.392C139.273 34.4773 139.059 34.6053 138.846 34.776C138.675 34.9467 138.59 35.1813 138.59 35.48H138.334C138.419 35.48 138.483 35.5653 138.526 35.736C138.227 35.736 138.014 35.8213 137.886 35.992L138.206 36.184C138.121 36.2693 138.014 36.3547 137.886 36.44C137.758 36.4827 137.63 36.5467 137.502 36.632C137.374 36.6747 137.246 36.7387 137.118 36.824C136.99 36.8667 136.883 36.9307 136.798 37.016C136.329 37.3573 136.094 37.6773 136.094 37.976C136.094 38.0187 136.115 38.0613 136.158 38.104C136.201 38.1467 136.243 38.1893 136.286 38.232C136.371 38.2747 136.457 38.3387 136.542 38.424L136.03 38.36C136.03 38.36 136.051 38.36 136.094 38.36C136.137 38.3173 136.179 38.296 136.222 38.296C136.051 38.296 135.923 38.3173 135.838 38.36C135.753 38.36 135.753 38.4027 135.838 38.488L135.902 38.552C135.902 38.552 135.881 38.552 135.838 38.552C135.838 38.552 135.838 38.5733 135.838 38.616C135.795 38.6587 135.774 38.7013 135.774 38.744H135.646C135.475 38.9573 135.305 39.1707 135.134 39.384C135.006 39.5973 134.899 39.8107 134.814 40.024C134.643 40.408 134.409 40.792 134.11 41.176L134.558 41.496H134.11L133.854 41.752V42.072L133.47 42.392L133.598 42.456L132.958 43.544L132.766 43.608V44.12L132.062 44.888L132.126 45.144H131.998V45.592C131.699 45.8907 131.507 46.2747 131.422 46.744C131.379 47.1707 131.209 47.5973 130.91 48.024H131.294L130.782 48.344V48.536C130.739 48.5787 130.718 48.6427 130.718 48.728C130.718 48.8987 130.718 49.048 130.718 49.176C130.761 49.304 130.803 49.432 130.846 49.56C130.889 49.688 130.91 49.816 130.91 49.944C130.953 50.072 130.974 50.2213 130.974 50.392C130.974 50.7333 131.102 51.1813 131.358 51.736C131.657 52.248 131.955 52.504 132.254 52.504C133.065 52.504 133.875 52.2907 134.686 51.864C135.454 51.3947 136.243 51.1387 137.054 51.096L138.398 50.008C139.081 49.4533 139.678 48.792 140.19 48.024C140.745 47.256 141.363 46.5947 142.046 46.04H142.11L141.982 45.912C142.11 45.7413 142.302 45.4853 142.558 45.144C142.814 44.8027 142.963 44.5253 143.006 44.312C143.049 44.2693 143.07 44.184 143.07 44.056C143.07 43.9707 143.091 43.9067 143.134 43.864C143.219 43.6507 143.347 43.544 143.518 43.544C143.689 43.544 143.774 43.6507 143.774 43.864C143.774 43.992 143.753 44.0773 143.71 44.12C143.71 44.5467 143.518 45.1653 143.134 45.976C142.793 46.744 142.387 47.2133 141.918 47.384V47.576C141.705 47.7893 141.491 48.088 141.278 48.472C140.979 48.856 140.553 49.3893 139.998 50.072C139.486 50.7547 139.059 51.096 138.718 51.096L137.822 51.672V51.928C137.822 52.1413 137.694 52.2907 137.438 52.376C137.267 52.5893 137.054 52.6747 136.798 52.632C136.67 52.888 136.457 53.0587 136.158 53.144C136.03 53.1867 135.838 53.2933 135.582 53.464C135.497 53.592 135.283 53.72 134.942 53.848C134.643 53.976 134.43 54.0613 134.302 54.104C134.089 54.2747 133.833 54.3813 133.534 54.424C133.235 54.424 132.979 54.424 132.766 54.424H131.358ZM150.567 54.36C150.354 54.36 150.14 54.36 149.927 54.36C149.756 54.3173 149.564 54.2747 149.351 54.232C149.138 54.1467 148.924 54.0827 148.711 54.04C148.498 53.9973 148.284 53.9547 148.071 53.912L148.135 53.592C146.812 53.592 145.916 53.3573 145.447 52.888C145.02 52.376 144.807 51.4373 144.807 50.072C144.807 49.944 144.828 49.8587 144.871 49.816V49.624C145.084 49.6667 145.255 49.7093 145.383 49.752C145.511 49.752 145.618 49.752 145.703 49.752C146.13 49.752 146.428 49.6667 146.599 49.496C146.855 49.4533 147.111 49.432 147.367 49.432C147.623 49.432 147.879 49.4107 148.135 49.368C148.348 49.368 148.583 49.368 148.839 49.368C149.095 49.3253 149.33 49.2827 149.543 49.24V49.176C148.818 47.7253 148.178 46.4027 147.623 45.208C147.111 44.0133 146.855 42.6907 146.855 41.24C146.855 40.2587 147.026 39.3627 147.367 38.552C147.751 37.7413 148.05 36.888 148.263 35.992C148.348 35.736 148.476 35.608 148.647 35.608C148.86 35.5653 149.01 35.5227 149.095 35.48C149.266 35.2667 149.415 35.0747 149.543 34.904C149.714 34.7333 149.884 34.5627 150.055 34.392C150.183 34.264 150.311 34.1573 150.439 34.072C150.61 33.944 150.759 33.816 150.887 33.688L151.335 33.304C152.487 32.3227 153.788 31.4907 155.239 30.808C156.69 30.0827 158.076 29.4427 159.399 28.888L161.063 29.976C161.276 30.4027 161.532 30.8507 161.831 31.32C162.13 31.7467 162.279 32.2373 162.279 32.792V33.048C162.236 33.1333 162.215 33.2613 162.215 33.432L161.831 34.008C161.831 34.008 161.49 34.2213 160.807 34.648C160.167 35.0747 159.399 35.544 158.503 36.056C157.65 36.568 156.882 37.0373 156.199 37.464C155.559 37.848 155.218 38.04 155.175 38.04C155.004 38.04 154.919 37.976 154.919 37.848C154.919 37.72 155.175 37.4427 155.687 37.016C156.242 36.5467 156.86 36.056 157.543 35.544C158.226 34.9893 158.844 34.52 159.399 34.136C159.954 33.752 160.252 33.5387 160.295 33.496C159.1 33.624 157.927 33.88 156.775 34.264C155.623 34.6053 154.599 35.096 153.703 35.736C153.618 35.7787 153.49 35.7787 153.319 35.736C153.148 35.6933 153.02 35.7147 152.935 35.8C152.807 35.8853 152.722 36.056 152.679 36.312C152.636 36.568 152.572 36.7387 152.487 36.824C151.932 37.3787 151.484 38.04 151.143 38.808C150.844 39.576 150.695 40.4507 150.695 41.432C150.695 41.6453 150.802 42.1573 151.015 42.968C151.228 43.736 151.506 44.5893 151.847 45.528C152.188 46.4667 152.551 47.2773 152.935 47.96C153.319 48.6427 153.682 48.984 154.023 48.984H155.623C155.879 48.984 156.135 48.984 156.391 48.984C156.647 48.9413 156.903 48.8987 157.159 48.856C157.628 48.7707 158.076 48.6427 158.503 48.472C159.399 48.2587 160.295 48.1307 161.191 48.088C161.49 47.9173 161.852 47.7893 162.279 47.704C162.492 47.6613 162.684 47.64 162.855 47.64C163.068 47.64 163.26 47.6187 163.431 47.576L163.815 47.768L163.751 48.344C163.452 48.4293 162.962 48.6 162.279 48.856C161.639 49.112 160.978 49.3467 160.295 49.56C159.655 49.7733 159.164 49.88 158.823 49.88L158.567 49.816C158.524 49.816 158.503 49.7947 158.503 49.752H158.439C158.098 49.752 157.756 49.816 157.415 49.944C157.244 50.0293 157.052 50.1147 156.839 50.2C156.668 50.2427 156.498 50.3067 156.327 50.392C155.986 50.52 155.58 50.648 155.111 50.776C154.684 50.8613 154.236 50.8827 153.767 50.84C153.682 51.6933 153.362 52.504 152.807 53.272C152.295 53.9973 151.548 54.36 150.567 54.36ZM149.223 51.864C149.351 51.864 149.415 51.736 149.415 51.48C149.415 51.3947 149.394 51.288 149.351 51.16C149.308 50.9893 149.244 50.904 149.159 50.904C148.946 50.904 148.711 50.904 148.455 50.904C148.199 50.8613 147.964 50.8187 147.751 50.776C147.495 50.7333 147.239 50.712 146.983 50.712C146.727 50.6693 146.492 50.648 146.279 50.648H146.215C146.3 50.776 146.578 50.9467 147.047 51.16C147.516 51.3307 147.986 51.5013 148.455 51.672C148.924 51.8 149.18 51.864 149.223 51.864ZM163.922 44.696C163.581 44.8667 163.303 44.8453 163.09 44.632C162.919 44.4187 162.919 44.2053 163.09 43.992C163.303 43.7787 163.431 43.5867 163.474 43.416C163.517 43.2453 163.538 43.0533 163.538 42.84V42.328C163.538 42.0293 163.559 41.8587 163.602 41.816L163.986 41.432C164.029 41.3467 164.157 41.2613 164.37 41.176L164.69 40.28C164.391 39.9387 164.434 39.576 164.818 39.192L164.882 39.128V39.064L165.01 38.872L165.394 38.232L165.458 38.104H165.586C165.501 37.8907 165.565 37.656 165.778 37.4C165.863 37.1867 165.991 36.9733 166.162 36.76C166.333 36.5467 166.503 36.312 166.674 36.056C167.101 35.5867 167.335 35.16 167.378 34.776C167.463 34.4347 167.655 34.136 167.954 33.88C167.911 33.88 167.89 33.8373 167.89 33.752C167.89 33.7093 167.869 33.688 167.826 33.688C167.826 33.6453 167.847 33.6027 167.89 33.56V33.496C167.975 33.4107 168.125 33.1973 168.338 32.856C168.551 32.472 168.765 32.088 168.978 31.704C169.063 31.576 169.149 31.448 169.234 31.32C169.319 31.192 169.405 31.0427 169.49 30.872L169.81 30.296L168.082 29.72C167.229 29.4213 166.482 29.016 165.842 28.504C165.202 27.9493 164.882 27.16 164.882 26.136C164.882 25.6667 165.01 25.2613 165.266 24.92C165.565 24.5787 165.863 24.28 166.162 24.024C166.333 23.8533 166.418 23.7467 166.418 23.704C166.759 23.2773 167.101 23.1707 167.442 23.384C167.783 23.5547 167.783 23.8107 167.442 24.152L167.058 24.664C166.887 24.92 166.717 25.176 166.546 25.432C166.375 25.6453 166.29 25.9227 166.29 26.264C166.29 26.6907 166.589 27.0747 167.186 27.416C167.826 27.7147 168.509 27.9493 169.234 28.12C170.002 28.2907 170.535 28.376 170.834 28.376C172.583 26.072 174.311 23.7893 176.018 21.528C177.725 19.2667 179.431 16.984 181.138 14.68C181.309 14.5093 181.394 14.2107 181.394 13.784L183.762 11.288C183.933 11.3733 184.082 11.4373 184.21 11.48C184.381 11.5227 184.551 11.5653 184.722 11.608C184.893 11.6507 185.042 11.6933 185.17 11.736C185.341 11.7787 185.511 11.8213 185.682 11.864C186.023 11.9493 186.343 12.056 186.642 12.184C186.941 12.312 187.218 12.5253 187.474 12.824C187.943 13.2933 188.178 13.8693 188.178 14.552C188.178 15.2773 187.879 15.896 187.282 16.408C186.642 16.92 186.087 17.4107 185.618 17.88C185.447 18.008 185.277 18.136 185.106 18.264C184.978 18.392 184.829 18.5413 184.658 18.712C184.317 19.0533 183.933 19.224 183.506 19.224V18.776H183.698C183.869 18.5627 184.039 18.328 184.21 18.072C184.423 17.816 184.615 17.5813 184.786 17.368C185.213 16.8987 185.533 16.4293 185.746 15.96C185.575 16.1307 185.405 16.28 185.234 16.408C185.106 16.536 184.957 16.664 184.786 16.792C184.615 16.92 184.445 17.0693 184.274 17.24C184.146 17.368 183.997 17.5173 183.826 17.688C183.613 17.9867 183.271 18.4133 182.802 18.968C182.333 19.48 181.821 20.0347 181.266 20.632C180.797 21.2293 180.306 21.7627 179.794 22.232C179.325 22.7013 178.983 23.0427 178.77 23.256L178.706 23.32L178.962 23.576L178.13 23.896L178.194 23.96C178.194 24.3013 178.087 24.536 177.874 24.664C177.661 24.792 177.447 24.856 177.234 24.856C177.149 25.112 177.021 25.3467 176.85 25.56C176.722 25.7307 176.487 25.88 176.146 26.008C176.189 26.0507 176.21 26.1147 176.21 26.2C176.21 26.2427 176.231 26.2853 176.274 26.328C176.274 26.3707 176.295 26.4133 176.338 26.456H176.21V26.584H175.89C175.847 26.584 175.805 26.6693 175.762 26.84L175.954 27.16C175.997 27.2027 176.018 27.288 176.018 27.416C176.615 26.776 177.191 26.136 177.746 25.496C178.301 24.856 178.877 24.1947 179.474 23.512L182.93 19.672H183.058C183.058 19.7147 183.079 19.736 183.122 19.736C183.122 19.7787 183.143 19.8 183.186 19.8C183.186 20.0987 182.951 20.568 182.482 21.208C182.013 21.848 181.437 22.552 180.754 23.32C180.071 24.0453 179.41 24.7493 178.77 25.432C178.173 26.1147 177.703 26.648 177.362 27.032C177.234 27.16 177.085 27.352 176.914 27.608C176.786 27.736 176.637 27.928 176.466 28.184H177.042C177.597 28.184 178.087 28.1627 178.514 28.12C178.983 28.0347 179.453 27.9493 179.922 27.864C180.135 27.8213 180.349 27.7787 180.562 27.736C180.775 27.6507 180.989 27.5867 181.202 27.544C181.415 27.5013 181.629 27.4587 181.842 27.416C182.055 27.3733 182.269 27.3307 182.482 27.288C182.994 27.2027 183.677 27.0747 184.53 26.904C185.383 26.6907 186.002 26.4347 186.386 26.136C187.495 25.7947 188.583 25.5387 189.65 25.368C189.65 25.368 189.671 25.368 189.714 25.368C189.757 25.3253 189.821 25.2827 189.906 25.24C189.991 25.24 190.055 25.2187 190.098 25.176C190.183 25.048 190.29 24.984 190.418 24.984L190.93 24.792L191.442 24.664V24.6C192.039 24.472 192.615 24.3013 193.17 24.088C193.725 23.832 194.301 23.576 194.898 23.32C195.453 23.1067 195.986 22.9147 196.498 22.744C197.053 22.5307 197.607 22.424 198.162 22.424L198.354 22.04C198.866 21.528 199.442 21.272 200.082 21.272V21.464C200.253 21.6347 200.338 21.8267 200.338 22.04C200.338 22.168 200.295 22.232 200.21 22.232C199.826 22.616 199.399 22.8293 198.93 22.872C198.973 22.9573 198.994 23.0213 198.994 23.064C199.037 23.1067 199.058 23.1493 199.058 23.192C199.058 23.32 198.994 23.384 198.866 23.384C198.695 23.512 198.482 23.576 198.226 23.576C198.013 23.576 197.906 23.448 197.906 23.192L198.098 23.064C197.842 23.064 197.671 23.0213 197.586 22.936C197.287 23.704 196.797 24.088 196.114 24.088L195.986 24.6L195.282 24.408C195.069 24.6213 194.855 24.728 194.642 24.728C194.557 24.9413 194.471 25.1333 194.386 25.304C194.343 25.432 194.194 25.496 193.938 25.496C193.981 25.4533 194.002 25.3893 194.002 25.304C193.959 25.2613 193.938 25.2187 193.938 25.176C193.639 25.5173 193.277 25.816 192.85 26.072C192.466 26.328 191.997 26.456 191.442 26.456L191.378 26.008H191.314C191.357 26.0507 191.378 26.1573 191.378 26.328C191.378 26.4987 191.293 26.6267 191.122 26.712C190.994 26.7973 190.887 26.84 190.802 26.84C190.759 26.84 190.738 26.8187 190.738 26.776H190.61C190.397 26.9467 190.205 27.032 190.034 27.032C189.949 27.032 189.885 27.0107 189.842 26.968H189.65C189.437 27.1387 189.245 27.2453 189.074 27.288C188.903 27.288 188.647 27.3093 188.306 27.352C187.751 27.4373 187.154 27.5867 186.514 27.8C185.917 28.0133 185.341 28.2267 184.786 28.44C184.743 28.4827 184.637 28.504 184.466 28.504C184.381 28.504 184.338 28.5253 184.338 28.568C183.015 29.2507 181.671 29.6133 180.306 29.656C178.855 29.784 177.447 29.976 176.082 30.232C175.954 30.2747 175.826 30.3173 175.698 30.36C175.57 30.36 175.421 30.36 175.25 30.36C175.079 30.36 174.93 30.3813 174.802 30.424C174.674 30.424 174.546 30.4453 174.418 30.488C174.162 30.5307 173.842 30.744 173.458 31.128C173.074 31.4693 172.711 31.8533 172.37 32.28C172.029 32.7067 171.773 33.048 171.602 33.304C171.431 33.4747 171.239 33.6667 171.026 33.88C170.813 34.0507 170.599 34.2213 170.386 34.392C169.959 34.6907 169.575 35.0747 169.234 35.544C169.149 35.6293 169.042 35.736 168.914 35.864C168.786 35.992 168.679 36.1413 168.594 36.312C168.381 36.696 168.125 36.9093 167.826 36.952C167.911 37.1653 167.869 37.3147 167.698 37.4L167.57 37.528C167.186 37.912 166.994 38.36 166.994 38.872C166.866 39 166.759 39.1707 166.674 39.384L166.61 39.64L166.418 39.896C166.205 40.1947 165.991 40.5573 165.778 40.984C165.607 41.368 165.415 41.7947 165.202 42.264C164.989 42.7333 164.775 43.1813 164.562 43.608C164.349 43.992 164.135 44.3547 163.922 44.696ZM161.938 61.976C161.639 61.976 161.298 61.912 160.914 61.784C160.573 61.656 160.295 61.4853 160.082 61.272C159.869 61.016 159.57 60.5467 159.186 59.864C158.759 59.224 158.546 58.7333 158.546 58.392C158.546 57.5813 158.589 56.792 158.674 56.024C158.759 55.256 158.887 54.4667 159.058 53.656C159.314 53.4427 159.463 53.1867 159.506 52.888C159.549 52.5893 159.591 52.2907 159.634 51.992C159.975 51.6507 160.167 51.224 160.21 50.712C160.253 50.2 160.509 49.944 160.978 49.944L161.106 49.816C161.149 49.7733 161.127 49.6667 161.042 49.496C160.957 49.2827 160.893 49.112 160.85 48.984C160.807 48.8133 160.85 48.6213 160.978 48.408C161.021 48.3227 161.063 48.2373 161.106 48.152C161.149 48.024 161.191 47.9387 161.234 47.896C161.277 47.8533 161.341 47.704 161.426 47.448C161.554 46.9787 161.661 46.5733 161.746 46.232C161.874 45.848 162.109 45.464 162.45 45.08C162.663 44.9093 162.855 44.9093 163.026 45.08C163.197 45.208 163.261 45.3787 163.218 45.592C163.218 45.848 163.154 46.104 163.026 46.36H163.538C163.367 47.1707 163.175 47.9813 162.962 48.792C162.749 49.6027 162.535 50.4133 162.322 51.224C161.81 52.8027 161.554 54.424 161.554 56.088C161.554 57.5813 161.853 58.968 162.45 60.248L163.346 59.736L163.666 59.16V59.864L163.794 60.184C163.879 59.9707 164.007 59.7787 164.178 59.608C164.349 59.4373 164.605 59.352 164.946 59.352L165.01 59.8C165.01 59.928 164.989 60.0133 164.946 60.056C164.69 60.6107 164.285 61.0587 163.73 61.4C163.175 61.784 162.578 61.976 161.938 61.976ZM212.639 54.936C211.7 54.936 210.868 54.616 210.143 53.976C209.46 53.336 208.927 52.5467 208.543 51.608C208.159 50.6693 207.967 49.752 207.967 48.856C207.967 48.216 208.137 47.384 208.479 46.36C208.82 45.2933 209.204 44.2053 209.631 43.096C210.057 41.9867 210.42 41.0267 210.719 40.216L210.399 39.832C210.911 39.32 211.252 38.7867 211.423 38.232L211.999 36.504H212.127C212.255 36.504 212.34 36.4827 212.383 36.44C212.425 36.3973 212.489 36.376 212.575 36.376C212.703 36.376 212.724 36.4187 212.639 36.504L213.663 35.864C213.748 35.608 213.791 35.4587 213.791 35.416C213.791 35.288 213.748 35.096 213.663 34.84C213.535 34.712 213.471 34.5413 213.471 34.328C213.471 33.944 213.684 33.4107 214.111 32.728C214.58 32.0453 214.921 31.4907 215.135 31.064L215.327 29.592C215.412 29.5067 215.625 29.144 215.967 28.504C216.351 27.864 216.713 27.2027 217.055 26.52C217.439 25.7947 217.695 25.2827 217.823 24.984L217.759 24.664L217.887 24.024C217.972 23.9387 218.143 23.7467 218.399 23.448C218.697 23.1067 218.868 22.872 218.911 22.744C218.868 22.6587 218.825 22.552 218.783 22.424C218.74 22.296 218.719 22.1893 218.719 22.104C218.719 22.0613 218.74 22.04 218.783 22.04L218.847 21.848C218.975 21.7627 219.209 21.4213 219.551 20.824C219.892 20.184 220.255 19.48 220.639 18.712C221.065 17.944 221.449 17.2827 221.791 16.728C222.132 16.1307 222.324 15.832 222.367 15.832C222.537 15.0213 222.815 14.2533 223.199 13.528C223.625 12.76 224.009 11.992 224.351 11.224C224.692 10.456 224.863 9.688 224.863 8.92C224.863 8.06667 224.649 7.46933 224.222 7.128C223.796 6.744 223.177 6.552 222.367 6.552C221.129 6.552 219.572 6.89333 217.695 7.576C215.86 8.216 213.94 9.048 211.935 10.072C209.929 11.096 208.052 12.1413 206.303 13.208C204.553 14.232 203.167 15.128 202.143 15.896L200.799 16.92C200.585 17.0907 200.351 17.2827 200.095 17.496C199.881 17.6667 199.668 17.8373 199.455 18.008L198.687 18.584C198.516 18.6693 198.367 18.776 198.239 18.904C198.111 19.032 197.983 19.1387 197.855 19.224L198.239 19.16C198.111 19.3733 197.812 19.6507 197.343 19.992C196.873 20.2907 196.383 20.568 195.871 20.824C195.359 21.0373 194.953 21.1867 194.655 21.272L194.719 21.656H194.911V21.848L195.487 21.528L195.551 21.976L195.103 22.04L193.631 23.896L192.095 25.816H191.903V26.264C192.031 26.2213 192.137 26.2 192.223 26.2C192.351 26.1573 192.436 26.136 192.479 26.136C192.649 26.136 192.735 26.2 192.735 26.328C192.223 26.6267 191.817 27.1173 191.519 27.8C191.263 28.44 191.135 29.0587 191.135 29.656C191.135 30.1253 191.241 30.552 191.455 30.936C191.711 31.32 192.116 31.4693 192.671 31.384V31.576H192.223C191.583 31.576 190.943 31.4267 190.303 31.128C189.663 30.8293 189.3 30.3173 189.215 29.592C189.343 29.464 189.449 29.3787 189.535 29.336L189.791 29.144C189.535 28.8027 189.407 28.4613 189.407 28.12C189.407 28.0347 189.449 27.992 189.535 27.992L189.791 28.504H189.983C189.897 28.2907 189.791 28.0347 189.663 27.736C189.577 27.3947 189.535 27.1173 189.535 26.904C189.535 26.8613 189.577 26.7973 189.663 26.712V26.52L190.174 26.328C190.431 26.328 190.516 26.2213 190.431 26.008H190.879L190.623 25.816V25.56C190.623 25.432 190.687 25.368 190.815 25.368V25.176L190.623 25.24V25.432L190.239 25.88H190.047L189.983 25.624L190.174 25.496L191.007 24.792L190.879 23.384L191.071 23.128L191.519 23.064L191.903 23.448L193.631 21.4V21.016C193.46 21.0587 193.311 21.1013 193.183 21.144C193.097 21.144 193.012 21.144 192.927 21.144C192.713 21.144 192.607 21.08 192.607 20.952L192.799 20.888V20.696C193.14 20.3973 193.481 20.0987 193.823 19.8C194.207 19.4587 194.569 19.1387 194.911 18.84C195.252 18.4987 195.593 18.1787 195.935 17.88C196.276 17.5813 196.617 17.2827 196.959 16.984C197.215 16.728 197.471 16.472 197.727 16.216C197.983 15.96 198.26 15.7467 198.559 15.576L198.751 15.448C198.751 15.448 198.793 15.4053 198.879 15.32C198.921 15.2773 198.964 15.256 199.007 15.256H199.199V15.064C199.497 14.5093 200.031 14.168 200.799 14.04C200.884 13.8267 200.948 13.656 200.991 13.528C201.033 13.3573 201.076 13.1867 201.119 13.016C201.289 12.9307 201.716 12.7173 202.399 12.376C203.124 11.992 203.828 11.5867 204.51 11.16C205.193 10.7333 205.535 10.4133 205.535 10.2L205.727 10.392L206.559 10.648V10.264C206.473 10.1787 206.431 10.1147 206.431 10.072H206.495C206.665 10.072 206.836 9.944 207.007 9.688C207.177 9.51733 207.348 9.41066 207.519 9.368V9.56L209.055 8.408C209.609 7.98133 210.164 7.74666 210.719 7.704C210.847 7.576 211.103 7.40533 211.487 7.192C211.913 7.02133 212.127 6.89333 212.127 6.808C212.127 6.76533 212.105 6.744 212.063 6.744L212.703 6.68C213.129 6.296 213.62 5.976 214.175 5.72C214.772 5.464 215.348 5.29333 215.903 5.208C216.372 4.86666 216.884 4.632 217.439 4.504C218.036 4.376 218.612 4.26933 219.167 4.184L219.103 3.992C219.401 3.864 219.636 3.8 219.807 3.8C220.02 3.75733 220.276 3.736 220.575 3.736C222.025 3.736 223.433 4.03466 224.799 4.632C226.164 5.22933 227.188 6.21066 227.871 7.576L228.319 8.472C228.276 8.55733 228.233 8.64266 228.191 8.728C228.191 8.81333 228.191 8.89867 228.191 8.984V9.496C228.191 9.79466 228.191 10.0933 228.191 10.392C228.233 10.6907 228.276 10.9893 228.319 11.288C228.361 11.5867 228.383 11.9067 228.383 12.248C228.425 12.5467 228.447 12.8453 228.447 13.144C228.447 13.4853 228.425 13.72 228.383 13.848C228.127 14.104 227.871 14.5733 227.615 15.256C227.359 15.896 227.081 16.216 226.783 16.216L226.271 17.816C225.972 18.1147 225.78 18.52 225.694 19.032C225.652 19.544 225.567 20.0133 225.439 20.44C225.311 20.824 224.991 21.016 224.479 21.016V21.208C224.777 21.2507 224.927 21.4 224.927 21.656V21.784C224.884 21.8267 224.82 21.8907 224.735 21.976C224.649 22.0187 224.564 22.0827 224.479 22.168C224.223 22.3387 224.095 22.4667 224.095 22.552C224.095 22.5947 224.116 22.616 224.159 22.616L223.775 22.808L222.431 24.984L222.175 24.728C221.876 25.5813 221.492 26.3707 221.023 27.096L220.895 27.8L219.807 29.272L219.679 30.936C219.081 31.6187 218.655 32.1947 218.399 32.664C218.185 33.0907 218.015 33.5387 217.887 34.008C217.801 34.4773 217.609 35.1387 217.311 35.992C216.969 36.9733 216.585 37.8693 216.159 38.68C215.775 39.448 215.22 40.1947 214.495 40.92C214.324 40.8773 214.239 40.9627 214.239 41.176L214.815 42.392C214.345 43.2027 213.919 44.184 213.535 45.336C213.151 46.4453 212.959 47.4693 212.959 48.408C212.959 49.1333 213.023 49.8587 213.151 50.584C213.193 50.968 213.215 51.352 213.215 51.736C213.257 52.12 213.257 52.4827 213.215 52.824C213.684 52.824 214.303 52.632 215.071 52.248C215.881 51.864 216.692 51.3733 217.503 50.776C218.356 50.1787 219.081 49.5813 219.679 48.984C220.319 48.344 220.703 47.8107 220.831 47.384L221.087 47.64C221.215 47.3413 221.385 47.0427 221.599 46.744L222.239 45.976C222.324 45.8053 222.431 45.656 222.559 45.528C222.687 45.4 222.836 45.2507 223.007 45.08C223.348 44.824 223.604 44.5467 223.775 44.248L224.543 43.224C224.5 43.1813 224.479 43.1387 224.479 43.096L224.543 43.032H224.671L225.183 42.392V42.52C225.268 42.4347 225.353 42.328 225.439 42.2C225.567 42.072 225.673 41.944 225.759 41.816C225.844 41.688 225.972 41.5173 226.143 41.304C226.356 41.0907 226.42 41.0267 226.335 41.112L226.271 41.176L226.335 40.92H226.463C226.548 40.792 226.655 40.664 226.783 40.536C226.911 40.408 227.017 40.2587 227.103 40.088L227.743 39.32C227.828 39.2347 227.892 39.2133 227.935 39.256C228.148 38.9147 228.447 38.5307 228.831 38.104C229.257 37.6347 229.556 37.2507 229.727 36.952H229.791C230.175 36.568 230.58 36.056 231.007 35.416C231.476 34.776 231.924 34.4133 232.351 34.328C232.692 34.0293 233.033 33.7307 233.375 33.432C233.716 33.1333 234.057 32.8347 234.399 32.536L234.463 32.344C234.633 32.216 234.783 32.088 234.911 31.96C235.081 31.832 235.231 31.6827 235.359 31.512L235.551 31.576C235.721 31.4053 235.849 31.256 235.935 31.128C236.105 30.9573 236.255 30.8293 236.383 30.744L236.255 30.68H236.383L236.511 30.616L238.687 26.072V25.816L238.111 25.944V25.688H238.239C238.281 25.6453 238.452 25.368 238.751 24.856C239.049 24.3013 239.391 23.6827 239.775 23C240.159 22.2747 240.521 21.656 240.863 21.144C241.204 20.5893 241.396 20.312 241.439 20.312C241.439 20.2267 241.545 19.9493 241.759 19.48C241.972 19.0107 242.228 18.4773 242.527 17.88C242.868 17.2827 243.188 16.7493 243.487 16.28C243.828 15.768 244.084 15.448 244.255 15.32L244.191 14.744L245.023 13.976V13.848C244.937 13.848 244.809 13.8693 244.639 13.912C244.511 13.912 244.361 13.9333 244.191 13.976V13.848H244.319L246.111 11.352C246.495 10.7973 246.751 10.2427 246.879 9.688C247.049 9.09066 247.241 8.57866 247.455 8.152C247.668 7.68266 248.073 7.384 248.671 7.256L248.799 7.064H248.927V6.936C249.78 6.936 250.591 7.10666 251.359 7.448C252.169 7.74666 252.916 8.13066 253.599 8.6C253.684 8.68533 253.791 8.77066 253.919 8.856C254.047 8.94133 254.175 9.02666 254.303 9.112C254.601 9.32533 254.793 9.56 254.879 9.816C254.921 9.90133 254.943 9.98666 254.943 10.072C254.985 10.1573 255.007 10.2427 255.007 10.328V11.288C255.007 11.7147 254.921 12.0987 254.751 12.44C254.58 12.7813 254.367 13.1013 254.111 13.4C253.855 13.6987 253.599 13.9973 253.343 14.296C253.087 14.552 252.852 14.8507 252.639 15.192C252.553 15.3627 252.34 15.6827 251.999 16.152C251.657 16.5787 251.401 16.792 251.231 16.792C250.633 17.6453 249.972 18.4987 249.247 19.352C248.564 20.1627 247.796 20.9093 246.943 21.592H246.815C246.303 22.232 245.769 22.8293 245.215 23.384L244.703 25.112L244.319 25.496C244.191 25.5813 244.041 25.7093 243.871 25.88C243.785 25.9653 243.593 26.3067 243.295 26.904C243.039 27.5013 242.761 28.0987 242.463 28.696C242.164 29.2507 241.951 29.5707 241.823 29.656C242.121 28.8453 242.441 28.056 242.783 27.288C243.124 26.52 243.465 25.7733 243.807 25.048H243.935L243.807 24.792L243.167 25.368L242.527 26.008C242.228 26.5627 242.079 27.1387 242.079 27.736L241.695 27.608V27.736C241.737 27.7787 241.759 27.8853 241.759 28.056C241.759 28.1413 241.695 28.4613 241.567 29.016C241.439 29.5707 241.268 30.1253 241.055 30.68C240.884 31.192 240.692 31.448 240.479 31.448V31.832C240.479 32.0453 240.5 32.1947 240.543 32.28C240.543 32.4507 240.457 32.792 240.287 33.304C240.116 33.7733 240.031 34.072 240.031 34.2L239.903 34.264L239.647 34.136C239.647 34.264 239.668 34.3493 239.711 34.392V34.648C239.583 34.9467 239.284 35.2027 238.815 35.416C238.857 35.5867 238.879 35.7573 238.879 35.928C238.921 36.056 238.943 36.1627 238.943 36.248C238.943 36.6747 238.879 37.08 238.751 37.464L238.367 38.616C237.94 39.9387 237.535 41.432 237.151 43.096C236.809 44.7173 236.639 46.2107 236.639 47.576C236.639 48.2587 236.703 48.984 236.831 49.752C237.001 50.4773 237.279 51.096 237.663 51.608C238.089 52.12 238.665 52.376 239.391 52.376C240.287 52.376 241.353 52.0347 242.591 51.352C243.828 50.6267 245.129 49.7093 246.495 48.6C247.86 47.4907 249.183 46.3173 250.463 45.08C251.785 43.8427 252.98 42.6693 254.047 41.56C255.113 40.408 255.945 39.4693 256.543 38.744C256.628 38.6587 256.735 38.4453 256.863 38.104C256.991 37.7627 257.055 37.5493 257.055 37.464C257.055 37.3787 257.033 37.336 256.991 37.336C256.82 37.336 256.436 37.6347 255.839 38.232C255.241 38.8293 254.58 39.5333 253.854 40.344C253.172 41.112 252.553 41.7947 251.999 42.392C251.444 42.9893 251.124 43.288 251.039 43.288V43.224C251.039 43.1387 251.06 43.0107 251.103 42.84C251.188 42.6267 251.252 42.4773 251.295 42.392C251.423 42.136 251.679 41.816 252.062 41.432C252.276 41.2613 252.447 41.112 252.575 40.984C252.745 40.8133 252.873 40.6853 252.959 40.6C253.769 39.7467 254.601 38.8507 255.455 37.912C256.351 36.9307 257.14 35.9493 257.823 34.968L261.023 30.232C261.023 29.9333 261.129 29.4853 261.343 28.888C261.556 28.2907 261.812 27.736 262.111 27.224C262.452 26.6693 262.772 26.3493 263.071 26.264C263.113 26.264 263.199 26.072 263.326 25.688C263.497 25.304 263.647 24.92 263.775 24.536C263.945 24.152 264.031 23.96 264.031 23.96V24.024C264.073 24.0667 264.095 24.1733 264.095 24.344C264.095 24.5147 264.116 24.6427 264.159 24.728V24.856C264.159 24.8987 264.18 24.92 264.223 24.92C264.265 24.92 264.287 24.8987 264.287 24.856C264.457 24.5147 264.543 24.1093 264.543 23.64C264.5 23.4267 264.479 23.2133 264.479 23C264.479 22.7867 264.479 22.5733 264.479 22.36C264.479 22.0613 264.692 21.8267 265.119 21.656C265.46 21.4853 265.737 21.2507 265.951 20.952C266.079 20.7387 266.249 20.376 266.463 19.864C266.676 19.352 266.847 18.8187 266.975 18.264C267.145 17.7093 267.231 17.3253 267.231 17.112V17.048C267.231 16.92 267.444 16.728 267.871 16.472C268.255 16.2587 268.447 16.0453 268.447 15.832C268.447 15.6187 268.34 15.4693 268.127 15.384C267.871 15.2987 267.743 15.192 267.743 15.064L267.807 15C267.849 14.8293 267.871 14.68 267.871 14.552C267.913 14.424 267.935 14.3173 267.935 14.232C267.849 14.1467 267.807 14.0613 267.807 13.976C267.807 13.8053 267.892 13.6347 268.062 13.464C268.191 13.2507 268.255 12.9947 268.255 12.696C268.255 12.4827 268.233 12.312 268.191 12.184C268.148 12.0987 268.127 11.9493 268.127 11.736C268.127 11.5227 268.233 11.352 268.447 11.224C268.447 11.0107 268.447 10.776 268.447 10.52C268.489 10.264 268.532 10.0293 268.575 9.816C268.276 9.51733 268.127 9.112 268.127 8.6C268.127 8.42933 268.127 8.25866 268.127 8.088C268.169 7.87466 268.212 7.68266 268.255 7.512C268.297 7.34133 268.319 7.17066 268.319 7C268.319 6.82933 268.319 6.65867 268.319 6.488C268.319 6.01866 268.148 5.69866 267.807 5.528C267.465 5.35733 267.295 5.18667 267.295 5.016C267.295 4.632 267.423 4.312 267.679 4.056C267.636 3.88533 267.465 3.69333 267.167 3.48C266.953 3.30933 266.868 3.07467 266.911 2.776C266.74 2.69066 266.569 2.52 266.399 2.264C266.271 2.008 266.207 1.77333 266.207 1.56C266.207 1.09067 266.463 0.855999 266.975 0.855999C267.188 0.855999 267.38 0.919998 267.551 1.048C267.721 1.13333 267.871 1.24 267.999 1.368C268.98 2.43466 269.769 3.608 270.367 4.888C270.964 6.12533 271.263 7.49067 271.263 8.984C271.263 9.92266 271.199 10.84 271.071 11.736C270.985 12.5893 270.857 13.464 270.687 14.36C270.729 14.36 270.751 14.4027 270.751 14.488C270.751 14.8293 270.623 15.256 270.367 15.768C270.068 16.2373 269.919 16.6213 269.919 16.92C269.919 17.0907 269.919 17.24 269.919 17.368C269.961 17.496 270.004 17.6453 270.047 17.816C270.089 17.9867 270.111 18.136 270.111 18.264C270.153 18.392 270.175 18.5413 270.175 18.712C270.175 18.84 270.132 18.9467 270.047 19.032C269.961 19.1173 269.833 19.288 269.663 19.544C269.492 19.7573 269.385 19.928 269.343 20.056C269.385 20.056 269.428 20.056 269.471 20.056C269.513 20.0133 269.556 19.992 269.599 19.992C269.428 20.2907 269.257 20.7173 269.087 21.272C268.916 21.8267 268.831 22.168 268.831 22.296V22.424C268.831 22.4667 268.873 22.488 268.959 22.488L269.087 22.36L268.511 24.152C268.553 24.2373 268.575 24.4293 268.575 24.728C268.575 25.624 268.212 26.264 267.487 26.648L266.143 29.784C265.716 30.808 265.14 31.7893 264.415 32.728C264.329 32.856 264.223 32.984 264.095 33.112C263.967 33.1973 263.86 33.2827 263.775 33.368L263.135 34.008L262.943 34.264C262.9 34.3493 262.815 34.456 262.687 34.584C262.687 34.7547 262.665 34.9253 262.623 35.096C262.623 35.224 262.537 35.352 262.367 35.48C262.367 35.5227 262.388 35.544 262.431 35.544V35.736C262.431 35.9493 262.324 36.0987 262.111 36.184C261.897 36.2267 261.684 36.2267 261.471 36.184L260.895 36.888C260.937 37.016 260.959 37.144 260.959 37.272C261.001 37.3573 261.023 37.4427 261.023 37.528C261.023 37.9973 260.916 38.1893 260.703 38.104H259.999L259.871 38.168C259.871 39.0213 259.465 39.512 258.655 39.64L258.079 40.344C258.036 40.6 257.887 40.7707 257.631 40.856C256.564 42.0507 255.497 43.2453 254.431 44.44C253.364 45.592 252.276 46.7227 251.167 47.832C250.612 48.4293 249.801 49.0907 248.735 49.816C247.711 50.5413 246.58 51.224 245.343 51.864C244.105 52.504 242.911 53.0373 241.759 53.464C240.607 53.8907 239.625 54.104 238.815 54.104C236.468 54.104 234.783 53.3573 233.759 51.864C232.735 50.3707 232.223 48.5147 232.223 46.296C232.223 44.632 232.457 42.9893 232.927 41.368C233.439 39.704 233.993 38.104 234.591 36.568L233.951 36.44L234.079 36.376C234.121 36.2907 234.143 36.2053 234.143 36.12C234.143 35.992 234.164 35.8853 234.207 35.8C234.207 35.5867 234.228 35.416 234.271 35.288L234.399 35.16V35.416H234.527L234.335 34.328L235.167 34.2V34.072L234.911 33.688L235.039 33.624L235.743 32.216C235.572 32.344 235.401 32.472 235.231 32.6C235.103 32.728 234.953 32.8773 234.783 33.048L233.823 34.072L233.887 33.816H233.439L233.375 34.072H233.183L233.055 34.456L233.311 34.264H233.695C233.652 34.3493 233.545 34.4987 233.375 34.712C233.204 34.9253 233.076 35.0747 232.991 35.16L232.927 34.968L232.799 35.288H232.863C232.649 35.544 232.415 35.8 232.159 36.056C231.903 36.2693 231.647 36.4827 231.391 36.696L229.727 38.04L229.663 38.616L229.471 38.872H229.023L228.895 39.064L229.023 39.256L228.639 39.448V39.384C228.596 39.4693 228.553 39.5547 228.511 39.64C228.468 39.6827 228.425 39.7467 228.383 39.832C228.212 40.0027 228.105 40.152 228.062 40.28C227.977 40.3653 227.785 40.5787 227.487 40.92C227.231 41.2613 226.975 41.5813 226.719 41.88C226.505 42.1787 226.377 42.3493 226.335 42.392H226.463L226.591 43.032H226.463L226.399 43.224L226.143 43.288V43.032H225.823L225.759 43.224C225.289 43.608 224.841 44.0133 224.415 44.44C224.031 44.8667 223.625 45.3147 223.199 45.784L223.071 46.808C222.943 46.8507 222.772 46.7653 222.559 46.552L222.431 46.616C222.516 46.872 222.559 47.0213 222.559 47.064C222.559 47.192 222.516 47.2987 222.431 47.384C222.004 47.5973 221.684 47.896 221.471 48.28C221.3 48.664 221.172 49.0693 221.087 49.496H220.319L218.463 52.44H218.271L218.143 51.608C217.631 52.5893 217.161 53.3147 216.735 53.784C216.308 54.2533 215.796 54.5733 215.199 54.744C214.601 54.872 213.748 54.936 212.639 54.936ZM227.615 10.264L227.999 9.88H227.871C227.828 9.96533 227.764 10.072 227.679 10.2C227.593 10.2853 227.572 10.3067 227.615 10.264ZM244.959 22.68L246.111 21.656C246.665 21.144 247.028 20.8667 247.199 20.824C247.284 20.6533 247.561 20.2693 248.031 19.672C248.5 19.0747 249.033 18.4133 249.631 17.688C250.228 16.92 250.761 16.2587 251.231 15.704C251.743 15.1493 252.063 14.8293 252.191 14.744V14.68C252.148 14.68 252.127 14.6587 252.127 14.616C252.127 14.5733 252.191 14.4027 252.319 14.104C252.447 13.8053 252.575 13.5067 252.702 13.208C252.831 12.9093 252.895 12.7387 252.895 12.696C252.383 13.08 251.743 13.528 250.975 14.04C250.249 14.5093 249.545 15 248.863 15.512C248.223 16.024 247.775 16.5147 247.519 16.984C247.177 17.5813 246.857 18.1573 246.559 18.712C246.303 19.2667 246.068 19.8853 245.855 20.568V20.376L245.791 20.568C245.663 20.9093 245.513 21.2507 245.343 21.592C245.172 21.9333 245.044 22.296 244.959 22.68ZM225.631 18.2H225.887L225.951 17.816H225.887L225.631 18.2ZM196.447 19.8C196.66 19.5867 196.788 19.4373 196.831 19.352C196.788 19.3947 196.724 19.416 196.639 19.416L196.447 19.8ZM224.927 20.184H224.991L225.055 19.992L225.631 19.416H225.311L225.247 19.608H225.055C224.969 19.608 224.927 19.672 224.927 19.8C224.884 19.8427 224.863 19.8853 224.863 19.928V20.12C224.863 20.1627 224.884 20.184 224.927 20.184ZM269.599 19.992C269.684 19.736 269.769 19.608 269.855 19.608C269.897 19.608 269.919 19.6293 269.919 19.672L269.599 19.992ZM194.143 22.552C194.185 22.5093 194.207 22.4667 194.207 22.424C194.207 22.3813 194.228 22.3387 194.271 22.296C194.271 22.2107 194.292 22.1467 194.335 22.104H194.143C194.1 22.1467 194.015 22.168 193.887 22.168V22.36H194.143V22.552ZM243.679 23.896L244.063 23.576H243.871C243.785 23.6613 243.721 23.768 243.679 23.896ZM191.583 24.664H191.711C191.881 24.664 191.988 24.6427 192.031 24.6C191.988 24.5573 191.967 24.4933 191.967 24.408C192.223 24.408 192.372 24.3867 192.415 24.344V24.152C192.372 24.1093 192.351 24.0453 192.351 23.96L192.159 24.024V24.216C192.031 24.2587 191.903 24.3013 191.775 24.344C191.647 24.3867 191.583 24.4933 191.583 24.664ZM190.815 28.76L190.623 28.504L190.367 28.248C190.324 28.2053 190.367 28.312 190.495 28.568C190.58 28.696 190.644 28.76 190.687 28.76H190.815ZM262.639 54.488C262.041 54.488 261.529 54.2107 261.102 53.656C260.676 53.0587 260.462 52.4827 260.462 51.928C260.462 51.7573 260.484 51.608 260.526 51.48C260.526 51.3093 260.548 51.1387 260.59 50.968C260.676 50.7973 260.74 50.648 260.782 50.52C260.825 50.3493 260.868 50.1787 260.91 50.008L261.102 48.856L261.358 47.832C261.486 47.4053 261.678 46.808 261.934 46.04C262.191 45.2293 262.447 44.4613 262.703 43.736C263.001 43.0107 263.193 42.5413 263.279 42.328C263.705 41.2613 264.26 40.1947 264.943 39.128C265.241 38.616 265.519 38.104 265.775 37.592C266.073 37.0373 266.351 36.4827 266.607 35.928C266.692 35.7147 266.799 35.5013 266.927 35.288C267.097 35.032 267.268 34.7973 267.439 34.584C267.609 34.3707 267.759 34.1573 267.887 33.944C268.015 33.7307 268.164 33.5173 268.335 33.304C268.377 33.2187 268.399 33.1547 268.399 33.112C268.441 33.0693 268.463 33.0267 268.463 32.984V32.92C268.463 32.9627 268.484 32.984 268.527 32.984C268.612 32.4293 268.761 31.9387 268.975 31.512C269.231 31.0853 269.508 30.68 269.807 30.296C270.148 29.784 270.489 29.3147 270.831 28.888C271.215 28.4187 271.513 28.056 271.727 27.8C272.068 27.3307 272.26 26.648 272.303 25.752C272.388 24.856 272.559 24.2373 272.815 23.896L273.775 22.936L274.671 21.976C274.841 21.8053 274.991 21.6347 275.119 21.464C275.247 21.2507 275.375 21.0587 275.503 20.888C275.673 20.504 275.908 20.1413 276.207 19.8C276.505 19.4587 276.804 19.1387 277.103 18.84C277.401 18.4987 277.7 18.1787 277.999 17.88C278.169 17.6667 278.319 17.4747 278.447 17.304C278.617 17.0907 278.767 16.8773 278.895 16.664C279.023 16.4507 279.151 16.2587 279.279 16.088C279.449 15.8747 279.62 15.6827 279.791 15.512C280.388 14.7867 281.028 14.1253 281.711 13.528C282.393 12.888 283.097 12.248 283.823 11.608C284.164 11.3093 284.505 10.9893 284.847 10.648C285.231 10.3067 285.615 9.96533 285.999 9.624C286.767 8.856 287.556 8.32266 288.367 8.024L289.839 7.448C290.052 7.36266 290.265 7.27733 290.479 7.192C290.735 7.10667 290.969 6.97867 291.183 6.808C291.481 6.936 291.908 7.14933 292.463 7.448C293.06 7.704 293.593 8.024 294.062 8.408C294.532 8.74933 294.767 9.112 294.767 9.496C294.767 9.66667 294.703 9.85867 294.575 10.072C294.404 10.3707 293.913 10.6907 293.103 11.032C292.335 11.3307 291.78 11.5867 291.439 11.8C290.927 12.0987 290.479 12.4827 290.095 12.952C289.881 13.1653 289.647 13.3573 289.391 13.528C289.135 13.6987 288.857 13.8693 288.559 14.04H288.431C288.175 14.296 287.791 14.5733 287.279 14.872L285.999 15.576C285.828 15.6613 285.7 15.7467 285.615 15.832C285.572 15.8747 285.529 15.9173 285.487 15.96C285.444 16.0027 285.401 16.088 285.359 16.216C285.316 16.3013 285.252 16.4293 285.167 16.6C285.167 16.6427 285.145 16.664 285.103 16.664C285.06 16.664 285.039 16.6853 285.039 16.728L284.847 16.856L284.783 16.92L285.167 16.856L285.231 17.176C285.231 17.304 285.167 17.368 285.039 17.368C284.74 17.6667 284.441 17.944 284.143 18.2C283.887 18.4133 283.609 18.6693 283.311 18.968L281.583 20.696C281.284 20.9947 281.049 21.336 280.878 21.72C280.623 22.1467 280.303 22.4027 279.919 22.488V22.552C279.919 22.9787 279.599 23.4907 278.958 24.088C278.319 24.6427 277.764 25.1547 277.295 25.624C277.039 25.7947 276.868 25.9867 276.783 26.2H276.719V26.264C276.719 26.6053 276.527 27.032 276.143 27.544C275.759 28.0133 275.332 28.248 274.863 28.248V27.288L275.055 27.16C275.225 27.1173 275.332 27.032 275.375 26.904H275.759L275.823 26.84H275.759C276.271 25.9867 276.463 25.5173 276.335 25.432C276.249 25.3467 275.972 25.5387 275.503 26.008C275.076 26.4347 274.564 27.032 273.967 27.8C273.412 28.568 272.921 29.3787 272.495 30.232C272.452 30.744 272.175 31.256 271.663 31.768C271.236 32.28 270.852 32.792 270.51 33.304V33.368C270.212 33.9227 269.913 34.456 269.615 34.968C269.316 35.4373 269.017 35.9067 268.719 36.376C268.42 36.8453 268.143 37.3147 267.887 37.784C267.631 38.2107 267.396 38.6587 267.183 39.128C266.713 40.024 266.265 40.984 265.839 42.008C265.455 42.9893 265.049 44.12 264.623 45.4L263.471 49.048C263.3 49.6453 263.129 50.2853 262.959 50.968C262.831 51.608 262.745 52.2693 262.703 52.952C262.745 52.8667 262.788 52.8027 262.831 52.76C262.916 52.6747 262.98 52.5893 263.023 52.504L263.407 51.928C263.62 51.5867 263.833 51.2453 264.047 50.904C264.26 50.52 264.473 50.136 264.687 49.752C264.9 49.4107 265.135 49.0693 265.391 48.728C265.647 48.3867 265.881 48.0667 266.095 47.768C266.564 47.1707 266.884 46.872 267.055 46.872C267.183 46.872 267.247 46.936 267.247 47.064C267.247 47.2347 267.033 47.704 266.607 48.472C266.223 49.24 265.753 50.0933 265.199 51.032C264.644 51.9707 264.111 52.7813 263.599 53.464C263.129 54.1467 262.809 54.488 262.639 54.488ZM282.543 18.776C282.713 18.6907 282.863 18.584 282.991 18.456C283.161 18.328 283.311 18.2213 283.439 18.136C283.695 17.9227 283.823 17.7733 283.823 17.688L283.631 17.368C283.417 17.5387 283.183 17.752 282.927 18.008C282.713 18.264 282.585 18.52 282.543 18.776ZM281.327 19.48C281.497 19.3947 281.689 19.3093 281.903 19.224C282.116 19.096 282.329 18.968 282.543 18.84L282.031 18.712L281.327 19.48ZM281.775 60.248C280.921 60.248 280.196 59.992 279.599 59.48C279.001 58.968 278.447 58.4133 277.935 57.816C277.679 57.56 277.487 57.3893 277.359 57.304C277.145 57.176 277.039 56.9413 277.039 56.6L277.359 56.472V56.408C276.591 55.384 276.121 54.2533 275.951 53.016C275.823 52.376 275.673 51.7573 275.503 51.16C275.375 50.52 275.225 49.9227 275.055 49.368H275.183L275.119 49.304C275.033 49.048 274.991 48.8133 274.991 48.6V47.96C274.991 47.448 275.012 47.128 275.055 47C275.012 47.0427 274.927 47.064 274.799 47.064H274.735V46.936H274.607C274.649 46.808 274.671 46.616 274.671 46.36V45.912C274.671 45.784 274.649 45.4427 274.607 44.888C274.607 44.2907 274.564 43.6293 274.479 42.904C274.436 42.1787 274.351 41.56 274.223 41.048C274.095 40.536 273.924 40.28 273.711 40.28C273.625 40.28 273.391 40.472 273.007 40.856C272.623 41.24 272.196 41.688 271.727 42.2C271.257 42.6693 270.831 43.1173 270.447 43.544C270.105 43.928 269.913 44.1627 269.871 44.248C269.615 44.504 269.38 44.7387 269.167 44.952C268.953 45.1227 268.719 45.2933 268.463 45.464V44.888C268.591 44.6747 268.719 44.4827 268.847 44.312C268.975 44.0987 269.081 43.8853 269.167 43.672C269.252 43.4587 269.359 43.2453 269.487 43.032C269.615 42.8187 269.743 42.6267 269.871 42.456C269.999 42.2853 270.127 42.136 270.255 42.008C270.383 41.8373 270.532 41.6667 270.703 41.496C270.831 41.368 270.959 41.24 271.087 41.112C271.215 40.984 271.321 40.8347 271.407 40.664C271.705 40.3653 271.961 40.0027 272.175 39.576C272.388 39.1493 272.644 38.7867 272.943 38.488C273.284 38.0187 273.796 37.4 274.479 36.632C275.204 35.864 275.801 35.416 276.271 35.288L277.807 34.904H278.127C278.169 35.0747 278.233 35.2667 278.319 35.48C278.404 35.6933 278.489 35.9493 278.575 36.248C278.745 36.76 278.831 37.208 278.831 37.592C278.831 38.3173 278.831 39.0427 278.831 39.768C278.873 40.4507 278.895 41.1547 278.895 41.88V46.808C278.895 46.9787 278.852 47.192 278.767 47.448C278.809 47.576 278.831 47.704 278.831 47.832C278.873 47.9173 278.895 48.024 278.895 48.152H278.958V48.216L279.343 48.088C279.343 48.856 279.343 49.5387 279.343 50.136C279.385 50.7333 279.577 51.3947 279.919 52.12C280.047 52.248 280.111 52.376 280.111 52.504C280.111 52.5893 280.068 52.632 279.983 52.632V52.76H279.599C279.556 52.76 279.492 52.8027 279.407 52.888H279.343C279.343 53.1013 279.364 53.2293 279.407 53.272V53.656L279.919 53.336C280.047 54.488 280.409 55.5333 281.007 56.472C281.647 57.4107 282.521 57.88 283.631 57.88H283.887C283.929 57.8373 283.993 57.816 284.079 57.816L284.719 57.432C284.847 57.3467 284.975 57.24 285.103 57.112C285.231 57.0267 285.38 56.9413 285.551 56.856C285.807 56.6427 286.041 56.408 286.255 56.152C286.468 55.896 286.575 55.448 286.575 54.808C286.66 55.064 286.724 55.256 286.767 55.384C286.809 55.5547 286.852 55.6827 286.895 55.768V55.96C286.895 56.2587 286.809 56.5147 286.639 56.728C286.468 56.984 286.297 57.2187 286.127 57.432C285.615 58.1573 284.996 58.7973 284.271 59.352C283.545 59.9493 282.713 60.248 281.775 60.248ZM267.375 46.488C267.204 46.488 267.119 46.4027 267.119 46.232C267.119 46.1467 267.183 45.976 267.311 45.72C267.481 45.464 267.673 45.336 267.887 45.336C268.057 45.336 268.143 45.4853 268.143 45.784C268.143 46.2533 267.887 46.488 267.375 46.488ZM289.108 54.424C288.639 54.424 288.169 54.36 287.7 54.232C287.017 53.976 286.335 53.272 285.652 52.12L286.164 51.992L285.716 51.672L285.204 50.072H285.14C285.097 49.944 285.076 49.752 285.076 49.496V49.048C285.076 48.8773 285.183 48.5787 285.396 48.152C285.609 47.7253 285.801 47.32 285.972 46.936L285.332 47.064V46.744C285.375 46.7013 285.439 46.5947 285.524 46.424C285.567 46.296 285.673 46.2107 285.844 46.168C285.887 46.2107 285.908 46.2747 285.908 46.36L286.036 46.232V45.912C286.036 45.7413 286.036 45.5707 286.036 45.4C286.079 45.1867 286.164 45.016 286.292 44.888C286.292 44.632 286.313 44.4827 286.356 44.44L286.42 44.184H286.548V43.928L286.932 43.416C287.145 43.2027 287.273 43.096 287.316 43.096V43.032C287.273 43.0747 287.209 43.096 287.124 43.096C286.953 43.096 286.868 43.0107 286.868 42.84C286.868 42.7973 286.889 42.7547 286.932 42.712V42.392C286.975 42.3493 286.996 42.2427 286.996 42.072C286.996 41.9013 286.953 41.7733 286.868 41.688L287.316 41.176L287.572 41.24L287.508 41.176H287.636L287.7 41.112L287.892 40.408L288.212 40.92L288.404 39.832C288.447 39.6187 288.489 39.4053 288.532 39.192C288.575 38.9787 288.617 38.7653 288.66 38.552L289.364 38.488V37.976H289.172V37.656L289.492 37.336V37.4L289.556 37.336V37.016L290.132 36.632V36.376C290.431 36.2053 290.687 35.9067 290.9 35.48C291.028 35.1813 291.327 34.9893 291.796 34.904H291.412L291.476 34.84L291.22 35.032V34.52H291.348L291.412 34.392H291.476L291.604 34.136V33.816C291.86 33.6453 292.116 33.432 292.372 33.176C292.671 32.92 292.82 32.6427 292.82 32.344L293.076 32.152V31.896L293.332 32.024L294.164 31.256V31L294.676 30.68L294.932 30.296C294.932 30.168 294.996 30.104 295.124 30.104C295.167 30.104 295.252 30.1467 295.38 30.232C295.551 30.2747 295.679 30.3173 295.764 30.36H296.148C296.831 30.36 297.513 30.616 298.196 31.128C298.879 31.5973 299.455 32.1733 299.924 32.856C300.393 33.5387 300.628 34.2213 300.628 34.904C300.628 35.1173 300.692 35.3307 300.82 35.544C300.863 35.672 300.884 35.8 300.884 35.928C300.927 36.056 300.948 36.2053 300.948 36.376V36.632C300.948 36.8027 300.927 36.9093 300.884 36.952C300.159 38.6587 299.028 40.3013 297.492 41.88C295.999 43.4587 294.441 44.696 292.82 45.592C292.479 45.7627 292.095 45.9333 291.668 46.104C291.241 46.2747 290.815 46.36 290.388 46.36C290.26 46.36 290.175 46.3387 290.132 46.296L289.684 46.168C289.812 46.1253 290.004 46.0187 290.26 45.848C290.345 45.8053 290.431 45.7627 290.516 45.72C290.601 45.6773 290.687 45.6347 290.772 45.592L291.156 45.4C291.241 45.4 291.305 45.3787 291.348 45.336L291.284 45.272C291.284 45.1013 291.391 45.016 291.604 45.016C291.86 44.8453 292.073 44.7387 292.244 44.696L292.884 44.504C293.14 44.4187 293.353 44.3547 293.524 44.312C293.737 44.2267 293.844 44.0987 293.844 43.928C294.015 43.8 294.228 43.5227 294.484 43.096C294.783 42.584 294.996 42.264 295.124 42.136L295.7 42.008L296.34 41.048L296.212 40.792L296.724 40.536V40.28H296.852C297.321 39.768 297.684 39.32 297.94 38.936C298.239 38.5093 298.495 37.9547 298.708 37.272C298.708 37.1867 298.772 37.144 298.9 37.144V37.08C299.156 36.568 299.284 36.0773 299.284 35.608C299.284 34.584 298.793 34.072 297.812 34.072C297.727 34.072 297.62 34.0507 297.492 34.008C297.321 34.008 297.236 34.0507 297.236 34.136H297.556L297.236 34.392C297.023 34.4773 296.809 34.6053 296.596 34.776C296.425 34.9467 296.34 35.1813 296.34 35.48H296.084C296.169 35.48 296.233 35.5653 296.276 35.736C295.977 35.736 295.764 35.8213 295.636 35.992L295.956 36.184C295.871 36.2693 295.764 36.3547 295.636 36.44C295.508 36.4827 295.38 36.5467 295.252 36.632C295.124 36.6747 294.996 36.7387 294.868 36.824C294.74 36.8667 294.633 36.9307 294.548 37.016C294.079 37.3573 293.844 37.6773 293.844 37.976C293.844 38.0187 293.865 38.0613 293.908 38.104C293.951 38.1467 293.993 38.1893 294.036 38.232C294.121 38.2747 294.207 38.3387 294.292 38.424L293.78 38.36C293.78 38.36 293.801 38.36 293.844 38.36C293.887 38.3173 293.929 38.296 293.972 38.296C293.801 38.296 293.673 38.3173 293.588 38.36C293.503 38.36 293.503 38.4027 293.588 38.488L293.652 38.552C293.652 38.552 293.631 38.552 293.588 38.552C293.588 38.552 293.588 38.5733 293.588 38.616C293.545 38.6587 293.524 38.7013 293.524 38.744H293.396C293.225 38.9573 293.055 39.1707 292.884 39.384C292.756 39.5973 292.649 39.8107 292.564 40.024C292.393 40.408 292.159 40.792 291.86 41.176L292.308 41.496H291.86L291.604 41.752V42.072L291.22 42.392L291.348 42.456L290.708 43.544L290.516 43.608V44.12L289.812 44.888L289.876 45.144H289.748V45.592C289.449 45.8907 289.257 46.2747 289.172 46.744C289.129 47.1707 288.959 47.5973 288.66 48.024H289.044L288.532 48.344V48.536C288.489 48.5787 288.468 48.6427 288.468 48.728C288.468 48.8987 288.468 49.048 288.468 49.176C288.511 49.304 288.553 49.432 288.596 49.56C288.639 49.688 288.66 49.816 288.66 49.944C288.703 50.072 288.724 50.2213 288.724 50.392C288.724 50.7333 288.852 51.1813 289.108 51.736C289.407 52.248 289.705 52.504 290.004 52.504C290.815 52.504 291.625 52.2907 292.436 51.864C293.204 51.3947 293.993 51.1387 294.804 51.096L296.148 50.008C296.831 49.4533 297.428 48.792 297.94 48.024C298.495 47.256 299.113 46.5947 299.796 46.04H299.86L299.732 45.912C299.86 45.7413 300.052 45.4853 300.308 45.144C300.564 44.8027 300.713 44.5253 300.756 44.312C300.799 44.2693 300.82 44.184 300.82 44.056C300.82 43.9707 300.841 43.9067 300.884 43.864C300.969 43.6507 301.097 43.544 301.268 43.544C301.439 43.544 301.524 43.6507 301.524 43.864C301.524 43.992 301.503 44.0773 301.46 44.12C301.46 44.5467 301.268 45.1653 300.884 45.976C300.543 46.744 300.137 47.2133 299.668 47.384V47.576C299.455 47.7893 299.241 48.088 299.028 48.472C298.729 48.856 298.303 49.3893 297.748 50.072C297.236 50.7547 296.809 51.096 296.468 51.096L295.572 51.672V51.928C295.572 52.1413 295.444 52.2907 295.188 52.376C295.017 52.5893 294.804 52.6747 294.548 52.632C294.42 52.888 294.207 53.0587 293.908 53.144C293.78 53.1867 293.588 53.2933 293.332 53.464C293.247 53.592 293.033 53.72 292.692 53.848C292.393 53.976 292.18 54.0613 292.052 54.104C291.839 54.2747 291.583 54.3813 291.284 54.424C290.985 54.424 290.729 54.424 290.516 54.424H289.108ZM304.733 54.424C304.264 54.424 303.794 54.36 303.325 54.232C302.642 53.976 301.96 53.272 301.277 52.12L301.789 51.992L301.341 51.672L300.829 50.072H300.765C300.722 49.944 300.701 49.752 300.701 49.496V49.048C300.701 48.8773 300.808 48.5787 301.021 48.152C301.234 47.7253 301.426 47.32 301.597 46.936L300.957 47.064V46.744C301 46.7013 301.064 46.5947 301.149 46.424C301.192 46.296 301.298 46.2107 301.469 46.168C301.512 46.2107 301.533 46.2747 301.533 46.36L301.661 46.232V45.912C301.661 45.7413 301.661 45.5707 301.661 45.4C301.704 45.1867 301.789 45.016 301.917 44.888C301.917 44.632 301.938 44.4827 301.981 44.44L302.045 44.184H302.173V43.928L302.557 43.416C302.77 43.2027 302.898 43.096 302.941 43.096V43.032C302.898 43.0747 302.834 43.096 302.749 43.096C302.578 43.096 302.493 43.0107 302.493 42.84C302.493 42.7973 302.514 42.7547 302.557 42.712V42.392C302.6 42.3493 302.621 42.2427 302.621 42.072C302.621 41.9013 302.578 41.7733 302.493 41.688L302.941 41.176L303.197 41.24L303.133 41.176H303.261L303.325 41.112L303.517 40.408L303.837 40.92L304.029 39.832C304.072 39.6187 304.114 39.4053 304.157 39.192C304.2 38.9787 304.242 38.7653 304.285 38.552L304.989 38.488V37.976H304.797V37.656L305.117 37.336V37.4L305.181 37.336V37.016L305.757 36.632V36.376C306.056 36.2053 306.312 35.9067 306.525 35.48C306.653 35.1813 306.952 34.9893 307.421 34.904H307.037L307.101 34.84L306.845 35.032V34.52H306.973L307.037 34.392H307.101L307.229 34.136V33.816C307.485 33.6453 307.741 33.432 307.997 33.176C308.296 32.92 308.445 32.6427 308.445 32.344L308.701 32.152V31.896L308.957 32.024L309.789 31.256V31L310.301 30.68L310.557 30.296C310.557 30.168 310.621 30.104 310.749 30.104C310.792 30.104 310.877 30.1467 311.005 30.232C311.176 30.2747 311.304 30.3173 311.389 30.36H311.773C312.456 30.36 313.138 30.616 313.821 31.128C314.504 31.5973 315.08 32.1733 315.549 32.856C316.018 33.5387 316.253 34.2213 316.253 34.904C316.253 35.1173 316.317 35.3307 316.445 35.544C316.488 35.672 316.509 35.8 316.509 35.928C316.552 36.056 316.573 36.2053 316.573 36.376V36.632C316.573 36.8027 316.552 36.9093 316.509 36.952C315.784 38.6587 314.653 40.3013 313.117 41.88C311.624 43.4587 310.066 44.696 308.445 45.592C308.104 45.7627 307.72 45.9333 307.293 46.104C306.866 46.2747 306.44 46.36 306.013 46.36C305.885 46.36 305.8 46.3387 305.757 46.296L305.309 46.168C305.437 46.1253 305.629 46.0187 305.885 45.848C305.97 45.8053 306.056 45.7627 306.141 45.72C306.226 45.6773 306.312 45.6347 306.397 45.592L306.781 45.4C306.866 45.4 306.93 45.3787 306.973 45.336L306.909 45.272C306.909 45.1013 307.016 45.016 307.229 45.016C307.485 44.8453 307.698 44.7387 307.869 44.696L308.509 44.504C308.765 44.4187 308.978 44.3547 309.149 44.312C309.362 44.2267 309.469 44.0987 309.469 43.928C309.64 43.8 309.853 43.5227 310.109 43.096C310.408 42.584 310.621 42.264 310.749 42.136L311.325 42.008L311.965 41.048L311.837 40.792L312.349 40.536V40.28H312.477C312.946 39.768 313.309 39.32 313.565 38.936C313.864 38.5093 314.12 37.9547 314.333 37.272C314.333 37.1867 314.397 37.144 314.525 37.144V37.08C314.781 36.568 314.909 36.0773 314.909 35.608C314.909 34.584 314.418 34.072 313.437 34.072C313.352 34.072 313.245 34.0507 313.117 34.008C312.946 34.008 312.861 34.0507 312.861 34.136H313.181L312.861 34.392C312.648 34.4773 312.434 34.6053 312.221 34.776C312.05 34.9467 311.965 35.1813 311.965 35.48H311.709C311.794 35.48 311.858 35.5653 311.901 35.736C311.602 35.736 311.389 35.8213 311.261 35.992L311.581 36.184C311.496 36.2693 311.389 36.3547 311.261 36.44C311.133 36.4827 311.005 36.5467 310.877 36.632C310.749 36.6747 310.621 36.7387 310.493 36.824C310.365 36.8667 310.258 36.9307 310.173 37.016C309.704 37.3573 309.469 37.6773 309.469 37.976C309.469 38.0187 309.49 38.0613 309.533 38.104C309.576 38.1467 309.618 38.1893 309.661 38.232C309.746 38.2747 309.832 38.3387 309.917 38.424L309.405 38.36C309.405 38.36 309.426 38.36 309.469 38.36C309.512 38.3173 309.554 38.296 309.597 38.296C309.426 38.296 309.298 38.3173 309.213 38.36C309.128 38.36 309.128 38.4027 309.213 38.488L309.277 38.552C309.277 38.552 309.256 38.552 309.213 38.552C309.213 38.552 309.213 38.5733 309.213 38.616C309.17 38.6587 309.149 38.7013 309.149 38.744H309.021C308.85 38.9573 308.68 39.1707 308.509 39.384C308.381 39.5973 308.274 39.8107 308.189 40.024C308.018 40.408 307.784 40.792 307.485 41.176L307.933 41.496H307.485L307.229 41.752V42.072L306.845 42.392L306.973 42.456L306.333 43.544L306.141 43.608V44.12L305.437 44.888L305.501 45.144H305.373V45.592C305.074 45.8907 304.882 46.2747 304.797 46.744C304.754 47.1707 304.584 47.5973 304.285 48.024H304.669L304.157 48.344V48.536C304.114 48.5787 304.093 48.6427 304.093 48.728C304.093 48.8987 304.093 49.048 304.093 49.176C304.136 49.304 304.178 49.432 304.221 49.56C304.264 49.688 304.285 49.816 304.285 49.944C304.328 50.072 304.349 50.2213 304.349 50.392C304.349 50.7333 304.477 51.1813 304.733 51.736C305.032 52.248 305.33 52.504 305.629 52.504C306.44 52.504 307.25 52.2907 308.061 51.864C308.829 51.3947 309.618 51.1387 310.429 51.096L311.773 50.008C312.456 49.4533 313.053 48.792 313.565 48.024C314.12 47.256 314.738 46.5947 315.421 46.04H315.485L315.357 45.912C315.485 45.7413 315.677 45.4853 315.933 45.144C316.189 44.8027 316.338 44.5253 316.381 44.312C316.424 44.2693 316.445 44.184 316.445 44.056C316.445 43.9707 316.466 43.9067 316.509 43.864C316.594 43.6507 316.722 43.544 316.893 43.544C317.064 43.544 317.149 43.6507 317.149 43.864C317.149 43.992 317.128 44.0773 317.085 44.12C317.085 44.5467 316.893 45.1653 316.509 45.976C316.168 46.744 315.762 47.2133 315.293 47.384V47.576C315.08 47.7893 314.866 48.088 314.653 48.472C314.354 48.856 313.928 49.3893 313.373 50.072C312.861 50.7547 312.434 51.096 312.093 51.096L311.197 51.672V51.928C311.197 52.1413 311.069 52.2907 310.813 52.376C310.642 52.5893 310.429 52.6747 310.173 52.632C310.045 52.888 309.832 53.0587 309.533 53.144C309.405 53.1867 309.213 53.2933 308.957 53.464C308.872 53.592 308.658 53.72 308.317 53.848C308.018 53.976 307.805 54.0613 307.677 54.104C307.464 54.2747 307.208 54.3813 306.909 54.424C306.61 54.424 306.354 54.424 306.141 54.424H304.733ZM320.742 56.984C320.529 56.984 320.315 56.92 320.102 56.792C319.889 56.664 319.675 56.5573 319.462 56.472C318.353 55.832 317.606 54.9787 317.222 53.912C316.881 52.8027 316.71 51.672 316.71 50.52C316.71 48.8987 316.902 47.2773 317.286 45.656C317.67 44.0347 318.097 42.4347 318.566 40.856C319.505 37.6133 320.699 34.4987 322.15 31.512C323.601 28.4827 325.265 25.56 327.142 22.744C327.441 22.2747 327.739 21.8267 328.038 21.4C328.379 20.9733 328.721 20.5467 329.062 20.12C329.403 19.6933 329.723 19.2667 330.022 18.84C330.321 18.3707 330.619 17.944 330.918 17.56L331.814 16.408C331.985 16.2373 332.134 16.0667 332.262 15.896C332.39 15.6827 332.518 15.4907 332.646 15.32C332.731 15.064 332.774 14.872 332.774 14.744C332.731 14.616 332.71 14.424 332.71 14.168C332.71 13.7413 332.987 13.2507 333.542 12.696C333.798 12.44 334.011 12.2267 334.182 12.056C334.395 11.8427 334.566 11.6507 334.694 11.48C334.95 11.1813 335.185 10.8613 335.398 10.52C335.654 10.1787 335.889 9.83733 336.102 9.496C336.315 9.15466 336.529 8.81333 336.742 8.472C336.998 8.13066 337.233 7.81067 337.446 7.512C337.745 7.17066 338.043 6.82933 338.342 6.488C338.641 6.104 338.939 5.76266 339.238 5.464C339.537 5.12266 339.814 4.78133 340.07 4.44C340.369 4.09866 340.625 3.71466 340.838 3.288C341.563 3.45867 342.31 3.69333 343.078 3.992C343.846 4.29066 344.486 4.67466 344.998 5.144C345.553 5.61333 345.83 6.25333 345.83 7.064C345.83 7.36266 345.702 7.68266 345.446 8.024C344.55 8.96267 343.59 9.85867 342.566 10.712C342.011 11.1387 341.499 11.5867 341.03 12.056C340.561 12.5253 340.113 12.9947 339.686 13.464C338.363 14.9147 336.998 16.664 335.59 18.712C334.182 20.7173 332.859 22.7867 331.622 24.92C330.385 27.0533 329.361 29.016 328.55 30.808L328.23 31.32L327.718 31.64V31.256L327.846 30.808C327.59 31.2347 327.355 31.6613 327.142 32.088C326.929 32.5147 326.715 32.9627 326.502 33.432L325.158 36.184C324.774 36.952 324.39 37.7413 324.006 38.552C323.665 39.3627 323.387 40.1947 323.174 41.048C323.131 41.176 323.11 41.3253 323.11 41.496C323.11 41.7093 323.089 41.88 323.046 42.008C323.046 42.264 322.897 42.392 322.598 42.392C322.427 42.392 322.342 42.3067 322.342 42.136C322.342 41.496 322.513 40.8347 322.854 40.152C322.811 40.1947 322.769 40.2587 322.726 40.344C322.683 40.3867 322.619 40.4293 322.534 40.472C322.449 40.3013 322.406 40.1947 322.406 40.152V40.088C322.406 39.5333 322.491 38.9573 322.662 38.36C322.449 38.5733 322.321 38.7867 322.278 39C322.193 39.2987 322.086 39.6187 321.958 39.96C321.873 40.2587 321.745 40.5787 321.574 40.92C321.403 41.2187 321.275 41.5387 321.19 41.88C321.105 42.1787 321.019 42.4773 320.934 42.776L320.55 44.888C320.507 45.2293 320.443 45.592 320.358 45.976C320.273 46.3173 320.187 46.6587 320.102 47C319.889 48.152 319.782 49.24 319.782 50.264C319.782 50.3493 319.782 50.456 319.782 50.584C319.782 50.712 319.803 50.84 319.846 50.968C319.889 51.096 319.91 51.224 319.91 51.352C319.91 51.48 319.931 51.6293 319.974 51.8L320.166 52.504C320.209 52.5893 320.23 52.696 320.23 52.824C320.23 52.952 320.251 53.0587 320.294 53.144C320.379 52.9307 320.571 52.8027 320.87 52.76V53.08C321.041 53.2507 321.169 53.4 321.254 53.528C321.382 53.656 321.553 53.72 321.766 53.72C322.363 53.72 322.982 53.4427 323.622 52.888C324.262 52.3333 324.859 51.6933 325.414 50.968C325.969 50.2427 326.374 49.6453 326.63 49.176C326.801 48.9627 326.971 48.7493 327.142 48.536C327.313 48.3227 327.483 48.1307 327.654 47.96C327.867 47.7893 328.038 47.5973 328.166 47.384C328.337 47.1707 328.507 46.9573 328.678 46.744C329.574 45.3787 330.406 44.0347 331.174 42.712C331.259 42.5413 331.345 42.392 331.43 42.264C331.515 42.136 331.601 42.0293 331.686 41.944L332.198 41.432C332.454 41.176 332.625 41.048 332.71 41.048C332.838 41.048 332.902 41.1333 332.902 41.304C332.902 41.3467 332.795 41.624 332.582 42.136C332.369 42.648 332.177 43.0107 332.006 43.224L332.07 43.288C331.601 43.9707 331.153 44.6533 330.726 45.336C330.299 46.0187 329.915 46.7227 329.574 47.448C329.233 48.1733 328.849 48.8773 328.422 49.56C328.038 50.2427 327.611 50.9253 327.142 51.608C326.715 52.248 326.289 52.952 325.862 53.72C325.435 54.4453 324.966 55.0853 324.454 55.64C323.985 56.2373 323.366 56.6 322.598 56.728C322.513 56.7707 322.406 56.792 322.278 56.792C322.15 56.792 322.043 56.792 321.958 56.792H321.318C321.147 56.92 320.955 56.984 320.742 56.984ZM325.542 31.896C325.713 31.7253 325.841 31.5547 325.926 31.384C326.054 31.1707 326.161 30.9573 326.246 30.744C326.459 30.4453 326.651 30.1467 326.822 29.848C326.993 29.5493 327.163 29.2507 327.334 28.952H327.398L327.462 28.696C327.334 28.696 327.163 28.888 326.95 29.272C326.865 29.4853 326.779 29.6987 326.694 29.912C326.609 30.0827 326.523 30.2533 326.438 30.424L325.862 31.384L325.542 31.896ZM323.494 35.736C322.982 36.4613 322.726 37.2507 322.726 38.104C322.982 37.2507 323.345 36.4827 323.814 35.8L324.518 34.712C324.689 34.4133 324.817 34.008 324.902 33.496L324.838 33.432C324.411 34.2427 323.963 35.0107 323.494 35.736ZM323.174 39.448C323.259 39.2773 323.302 39.192 323.302 39.192C323.515 38.7227 323.686 38.2747 323.814 37.848C323.985 37.4213 324.091 36.9947 324.134 36.568C324.091 36.952 323.921 37.464 323.622 38.104C323.323 38.6587 323.174 39.1067 323.174 39.448ZM337.38 54.36C337.166 54.36 336.953 54.36 336.74 54.36C336.569 54.3173 336.377 54.2747 336.164 54.232C335.95 54.1467 335.737 54.0827 335.524 54.04C335.31 53.9973 335.097 53.9547 334.884 53.912L334.948 53.592C333.625 53.592 332.729 53.3573 332.26 52.888C331.833 52.376 331.62 51.4373 331.62 50.072C331.62 49.944 331.641 49.8587 331.684 49.816V49.624C331.897 49.6667 332.068 49.7093 332.196 49.752C332.324 49.752 332.43 49.752 332.516 49.752C332.942 49.752 333.241 49.6667 333.411 49.496C333.668 49.4533 333.924 49.432 334.18 49.432C334.436 49.432 334.692 49.4107 334.948 49.368C335.161 49.368 335.396 49.368 335.652 49.368C335.908 49.3253 336.142 49.2827 336.356 49.24V49.176C335.63 47.7253 334.99 46.4027 334.436 45.208C333.924 44.0133 333.668 42.6907 333.668 41.24C333.668 40.2587 333.838 39.3627 334.18 38.552C334.564 37.7413 334.862 36.888 335.076 35.992C335.161 35.736 335.289 35.608 335.46 35.608C335.673 35.5653 335.822 35.5227 335.908 35.48C336.078 35.2667 336.228 35.0747 336.356 34.904C336.526 34.7333 336.697 34.5627 336.868 34.392C336.996 34.264 337.124 34.1573 337.252 34.072C337.422 33.944 337.572 33.816 337.7 33.688L338.148 33.304C339.3 32.3227 340.601 31.4907 342.052 30.808C343.502 30.0827 344.889 29.4427 346.212 28.888L347.876 29.976C348.089 30.4027 348.345 30.8507 348.644 31.32C348.942 31.7467 349.092 32.2373 349.092 32.792V33.048C349.049 33.1333 349.028 33.2613 349.028 33.432L348.644 34.008C348.644 34.008 348.302 34.2213 347.62 34.648C346.98 35.0747 346.212 35.544 345.316 36.056C344.462 36.568 343.694 37.0373 343.012 37.464C342.372 37.848 342.03 38.04 341.988 38.04C341.817 38.04 341.732 37.976 341.732 37.848C341.732 37.72 341.988 37.4427 342.5 37.016C343.054 36.5467 343.673 36.056 344.356 35.544C345.038 34.9893 345.657 34.52 346.212 34.136C346.766 33.752 347.065 33.5387 347.108 33.496C345.913 33.624 344.74 33.88 343.588 34.264C342.436 34.6053 341.412 35.096 340.516 35.736C340.43 35.7787 340.302 35.7787 340.132 35.736C339.961 35.6933 339.833 35.7147 339.748 35.8C339.62 35.8853 339.534 36.056 339.492 36.312C339.449 36.568 339.385 36.7387 339.3 36.824C338.745 37.3787 338.297 38.04 337.956 38.808C337.657 39.576 337.508 40.4507 337.508 41.432C337.508 41.6453 337.614 42.1573 337.828 42.968C338.041 43.736 338.318 44.5893 338.66 45.528C339.001 46.4667 339.364 47.2773 339.748 47.96C340.132 48.6427 340.494 48.984 340.836 48.984H342.436C342.692 48.984 342.948 48.984 343.204 48.984C343.46 48.9413 343.716 48.8987 343.972 48.856C344.441 48.7707 344.889 48.6427 345.316 48.472C346.212 48.2587 347.108 48.1307 348.003 48.088C348.302 47.9173 348.665 47.7893 349.092 47.704C349.305 47.6613 349.497 47.64 349.668 47.64C349.881 47.64 350.073 47.6187 350.244 47.576L350.628 47.768L350.564 48.344C350.265 48.4293 349.774 48.6 349.092 48.856C348.452 49.112 347.79 49.3467 347.108 49.56C346.468 49.7733 345.977 49.88 345.635 49.88L345.38 49.816C345.337 49.816 345.316 49.7947 345.316 49.752H345.252C344.91 49.752 344.569 49.816 344.228 49.944C344.057 50.0293 343.865 50.1147 343.652 50.2C343.481 50.2427 343.31 50.3067 343.14 50.392C342.798 50.52 342.393 50.648 341.924 50.776C341.497 50.8613 341.049 50.8827 340.58 50.84C340.494 51.6933 340.174 52.504 339.62 53.272C339.108 53.9973 338.361 54.36 337.38 54.36ZM336.036 51.864C336.164 51.864 336.228 51.736 336.228 51.48C336.228 51.3947 336.206 51.288 336.164 51.16C336.121 50.9893 336.057 50.904 335.972 50.904C335.758 50.904 335.524 50.904 335.268 50.904C335.012 50.8613 334.777 50.8187 334.564 50.776C334.308 50.7333 334.052 50.712 333.796 50.712C333.54 50.6693 333.305 50.648 333.092 50.648H333.028C333.113 50.776 333.39 50.9467 333.86 51.16C334.329 51.3307 334.798 51.5013 335.268 51.672C335.737 51.8 335.993 51.864 336.036 51.864Z" fill="#145229"/>
</g>
<defs>
<filter id="filter0_d_21_4" x="0.641479" y="0.855957" width="353.986" height="69.312" filterUnits="userSpaceOnUse" color-interpolation-filters="sRGB">
<feFlood flood-opacity="0" result="BackgroundImageFix"/>
<feColorMatrix in="SourceAlpha" type="matrix" values="0 0 0 0 0 0 0 0 0 0 0 0 0 0 0 0 0 0 127 0" result="hardAlpha"/>
<feOffset dy="4"/>
<feGaussianBlur stdDeviation="2"/>
<feComposite in2="hardAlpha" operator="out"/>
<feColorMatrix type="matrix" values="0 0 0 0 0 0 0 0 0 0 0 0 0 0 0 0 0 0 0.25 0"/>
<feBlend mode="normal" in2="BackgroundImageFix" result="effect1_dropShadow_21_4"/>
<feBlend mode="normal" in="SourceGraphic" in2="effect1_dropShadow_21_4" result="shape"/>
</filter>
</defs>
</svg>
